<svg width="56" height="50" viewBox="0 0 56 50" fill="#122C82" xmlns="http://www.w3.org/2000/svg"><path d="M42.936 23.6193V23.2791V22.5123V16.6073V16.598H42.9268L33.2094 7.51099H20.165V8.52373V12.4033H5.22965V13.0244V13.4075V42.4053H3.86548V43.0389H6.08086V42.7224H7.42592V43.0389H9.6413V42.7224H10.9864V43.0389H13.2017V42.7224H14.5468V43.0389H16.7622V42.7224H18.1072V43.0389H20.3226V42.7224H21.2028H21.6677V43.0389H23.8831V42.7224H25.2281V43.0389H27.4435V42.7224H28.7886V43.0389H31.0039V42.7224H32.349V43.0389H34.5637V42.7224H35.9094V43.0389H38.1242V42.7224H39.4692V43.0389H41.6846V42.7224H42.9347V27.313H41.2343V41.0233H22.5769V9.21143H32.8092L41.2356 17.0503V22.4971V23.262V23.6029V23.9431H24.7587V26.6418H41.9226H42.9354H46.0751V23.9609H42.9354V23.6193H42.936ZM6.93009 14.7822H20.165V41.0226H6.93009V14.7822Z" fill="#122C82"></path><path d="M17.3477 17.2963H13.7905V22.9804H17.3477V17.2963Z" fill="#122C82"></path><path d="M28.3163 34.8842H24.7585V36.1191H28.3163V34.8842Z" fill="#122C82"></path><path d="M38.5019 28.3508H32.4182V39.6275H38.5019V28.3508Z" fill="#122C82"></path><path d="M12.6425 17.2963H9.08472V22.9804H12.6425V17.2963Z" fill="#122C82"></path><path d="M17.339 23.8323H9.08472V25.0659H17.339V23.8323Z" fill="#122C82"></path><path d="M17.3477 28.3508H13.7905V34.0343H17.3477V28.3508Z" fill="#122C82"></path><path d="M12.6425 28.3508H9.08472V34.0343H12.6425V28.3508Z" fill="#122C82"></path><path d="M17.339 34.8842H9.08472V36.1191H17.339V34.8842Z" fill="#122C82"></path><path d="M33.0134 13.4075H29.4563V19.093H33.0134V13.4075Z" fill="#122C82"></path><path d="M28.3084 28.3508H24.7512V34.0343H28.3084V28.3508Z" fill="#122C82"></path><path d="M33.0135 19.9428H24.7585V21.1765H33.0135V19.9428Z" fill="#122C82"></path><path d="M28.3163 13.4075H24.7585V19.093H28.3163V13.4075Z" fill="#122C82"></path><path d="M13.2017 4.3877H10.9863V5.02132H13.2017V4.3877Z" fill="#122C82"></path><path d="M16.762 4.3877H14.5466V5.02132H16.762V4.3877Z" fill="#122C82"></path><path d="M48.806 4.3877H46.5906V5.02132H48.806V4.3877Z" fill="#122C82"></path><path d="M9.64117 4.3877H7.42578V5.02132H9.64117V4.3877Z" fill="#122C82"></path><path d="M27.4434 4.3877H25.228V5.02132H27.4434V4.3877Z" fill="#122C82"></path><path d="M31.0037 4.3877H28.7883V5.02132H31.0037V4.3877Z" fill="#122C82"></path><path d="M23.8829 4.3877H21.6675V5.02132H23.8829V4.3877Z" fill="#122C82"></path><path d="M34.5636 4.3877H32.3489V5.02132H34.5636V4.3877Z" fill="#122C82"></path><path d="M55.9269 4.3877H53.7122V5.02132H55.9269V4.3877Z" fill="#122C82"></path><path d="M2.52032 4.3877H0.304932V5.02132H2.52032V4.3877Z" fill="#122C82"></path><path d="M38.1246 4.3877H35.9099V5.02132H38.1246V4.3877Z" fill="#122C82"></path><path d="M45.2456 4.3877H43.0295V5.02132H45.2456V4.3877Z" fill="#122C82"></path><path d="M41.6851 4.3877H39.4697V5.02132H41.6851V4.3877Z" fill="#122C82"></path><path d="M55.9269 42.4053H53.7122V43.0389H55.9269V42.4053Z" fill="#122C82"></path><path d="M48.806 42.4053H46.5906V43.0389H48.806V42.4053Z" fill="#122C82"></path><path d="M2.52032 42.4053H0.304932V43.0389H2.52032V42.4053Z" fill="#122C82"></path><path d="M50.151 42.7369H49.7534V44.9536H50.3864V43.0389H52.3664V42.4053H50.151V42.7369Z" fill="#122C82"></path><path d="M45.2456 42.4053H43.0295V43.0389H45.2456V42.4053Z" fill="#122C82"></path><path d="M50.3864 35.6167H49.7534V37.8327H50.3864V35.6167Z" fill="#122C82"></path><path d="M50.3864 39.1771H49.7534V41.3925H50.3864V39.1771Z" fill="#122C82"></path><path d="M50.3864 5.02133H52.3664V4.3877H50.3864V3.57275H49.7534V5.78814H50.3864V5.02133Z" fill="#122C82"></path><path d="M50.3864 10.6936H49.7534V12.909H50.3864V10.6936Z" fill="#122C82"></path><path d="M50.3864 14.2534H49.7534V16.4694H50.3864V14.2534Z" fill="#122C82"></path><path d="M50.3864 17.8145H49.7534V20.0305H50.3864V17.8145Z" fill="#122C82"></path><path d="M50.3864 28.4958H49.7534V30.7112H50.3864V28.4958Z" fill="#122C82"></path><path d="M50.3864 0.0122986H49.7534V2.22834H50.3864V0.0122986Z" fill="#122C82"></path><path d="M50.3864 46.298H49.7534V48.4811H50.3864V46.298Z" fill="#122C82"></path><path d="M50.3864 7.13251H49.7534V9.34855H50.3864V7.13251Z" fill="#122C82"></path><path d="M50.3864 24.9347H49.7534V27.1508H50.3864V24.9347Z" fill="#122C82"></path><path d="M50.3864 32.0556H49.7534V34.2717H50.3864V32.0556Z" fill="#122C82"></path><path d="M18.9749 6.62087C18.9749 6.79559 19.1166 6.93735 19.2914 6.93735C19.4661 6.93735 19.6078 6.79493 19.6078 6.62087V5.02131H20.3219V4.38768H19.6078V0.649216C19.6078 0.474491 19.4661 0.332733 19.2914 0.332733C19.1166 0.332733 18.9749 0.47515 18.9749 0.649216V4.38768H18.1072V5.02131H18.9749V6.62087Z" fill="#122C82"></path><path d="M5.23163 6.62087C5.23163 6.79559 5.37339 6.93735 5.54812 6.93735C5.72284 6.93735 5.8646 6.79493 5.8646 6.62087V5.02131H6.08086V4.38768H5.8646V0.649216C5.8646 0.474491 5.72284 0.332733 5.54812 0.332733C5.37339 0.332733 5.23163 0.47515 5.23163 0.649216V4.38768H3.86548V5.02131H5.23163V6.62087Z" fill="#122C82"></path><path d="M47.4543 23.5152V24.1488H54.0596V23.5152H50.3864V21.3749H49.7535V23.5152H47.4543Z" fill="#122C82"></path><path d="M39.1894 46.3389C39.0147 46.3389 38.8736 46.4813 38.8736 46.6554V47.8468H32.6349V46.6554C32.6349 46.4807 32.4932 46.3389 32.3184 46.3389C32.1437 46.3389 32.002 46.4813 32.002 46.6554V49.6699C32.002 49.8446 32.1437 49.9864 32.3184 49.9864C32.4932 49.9864 32.6349 49.8439 32.6349 49.6699V48.4798H38.8736V49.6699C38.8736 49.8446 39.0154 49.9864 39.1894 49.9864C39.3648 49.9864 39.5059 49.8439 39.5059 49.6699V46.6554C39.5066 46.4813 39.3648 46.3389 39.1894 46.3389Z" fill="#122C82"></path></svg>