<svg width="52" height="55" viewBox="0 0 52 55" fill="none" xmlns="http://www.w3.org/2000/svg"><path d="M17.6052 29.3768C18.0212 29.3768 18.3583 29.0261 18.3583 28.5933C18.3583 28.1605 18.0212 27.8098 17.6052 27.8098H14.2059V25.46C14.2059 25.0272 13.8688 24.6765 13.4528 24.6765C13.0369 24.6765 12.6998 25.0272 12.6998 25.46V27.8098H10.0534V18.7613C10.0534 18.1847 9.62296 17.7332 9.07344 17.7332H1.35162C0.729702 17.7332 0.242432 18.2935 0.242432 19.0087V52.8485C0.242432 53.5637 0.729702 54.124 1.35162 54.124H17.2491C17.8607 54.124 18.3583 53.5518 18.3583 52.8485V44.7247C18.3583 44.2919 18.0212 43.9412 17.6052 43.9412C17.1893 43.9412 16.8522 44.2919 16.8522 44.7247V52.557H1.74862V19.3002H8.54741V21.272H6.00373C5.58774 21.272 5.25068 21.6227 5.25068 22.0555C5.25068 22.4883 5.58774 22.839 6.00373 22.839H8.54731V25.6841H6.26508C5.8491 25.6841 5.51204 26.0348 5.51204 26.4676C5.51204 26.9005 5.8491 27.2512 6.26508 27.2512H8.54731V34.1742C8.54731 34.607 8.88437 34.9577 9.30036 34.9577H16.8522V41.0817C16.8522 41.5145 17.1893 41.8652 17.6052 41.8652C18.0212 41.8652 18.3583 41.5145 18.3583 41.0817V34.4187C18.3583 33.7837 17.8333 33.3907 17.3468 33.3907H14.2059V29.3768H17.6052ZM12.6998 33.3907H10.0534V29.3768H12.6997V33.3907H12.6998Z" fill="#122C82"></path><path d="M43.2843 36.8745V33.0055V25.9167C43.2843 25.9164 43.2843 25.916 43.2843 25.9157V23.6564V14.9578C43.2843 14.9575 43.2843 14.9571 43.2843 14.9568V14.3074V10.2612H44.751C45.4354 10.2612 45.9922 9.68234 45.9922 8.97081V8.89872H49.8941C50.2277 8.89872 50.5337 8.78631 50.7721 8.59973C50.8153 8.56965 50.8561 8.53454 50.8939 8.49411C50.9024 8.48503 50.9097 8.47521 50.9178 8.4658C51.1362 8.23629 51.2703 7.93416 51.2703 7.60247V3.2946C51.2703 2.57972 50.653 1.99824 49.8941 1.99824H45.9923V1.92626C45.9923 1.21473 45.4355 0.635864 44.7511 0.635864H35.1741C34.4897 0.635864 33.9329 1.21473 33.9329 1.92626V1.99824H32.5091H24.1309C24.13 1.99824 24.1292 1.99824 24.1283 1.99824H23.5035H12.7233C11.963 1.99824 11.3444 2.57972 11.3444 3.2946V7.60237C11.3444 8.31714 11.963 8.89862 12.7233 8.89862H16.3065V11.5997L13.5208 14.6803H12.8326C12.1735 14.6803 11.6373 15.2378 11.6373 15.923V19.5869C11.6373 20.2737 12.1735 20.8325 12.8326 20.8325H21.284C21.9446 20.8325 22.4821 20.2737 22.4821 19.5869V15.923C22.4821 15.2378 21.9446 14.6803 21.284 14.6803H20.5986L17.8127 11.5997V8.89872H23.5037H32.5092H33.933V8.97081C33.933 9.68234 34.4899 10.2612 35.1742 10.2612H36.6408V14.3072V23.6563V33.0054V41.5709H34.2809C33.2371 41.5709 32.3879 42.4534 32.3879 43.5381V48.6484H31.5616C30.1076 48.6484 28.9246 49.8773 28.9246 51.3877V52.8156C28.9246 53.537 29.4905 54.1238 30.186 54.1238H49.9776C50.6715 54.1238 51.236 53.537 51.236 52.8156V51.3877C51.236 49.8773 50.0543 48.6484 48.602 48.6484H47.7758V43.5381C47.7758 42.4534 46.9251 41.5709 45.8797 41.5709H43.2843V36.8756C43.2843 36.8753 43.2843 36.875 43.2843 36.8745ZM49.7643 3.56559V6.26088L47.096 3.56548L49.7643 3.56559ZM45.9923 4.63451L48.6623 7.33169H45.9923V4.63451ZM12.8505 7.33127V3.56527H13.2679L16.995 7.33138L12.8505 7.33127ZM20.9759 16.2475V19.2656H13.1433V16.2475H20.9759ZM18.5305 14.6804H15.5886L17.0596 13.0538L18.5305 14.6804ZM15.4297 3.56527H22.2734L18.8515 7.02298L15.4297 3.56527ZM23.5036 7.33169L20.7079 7.33159L24.1297 3.87398L27.5515 7.33169H23.5036ZM25.9859 3.56527H32.5091H32.8296L29.4077 7.02298L25.9859 3.56527ZM32.5091 7.33169H31.264L33.9329 4.63493V7.33169H32.5091ZM45.8796 43.1381C46.0947 43.1381 46.2696 43.3175 46.2696 43.5382V48.6485H41.8852C41.4692 48.6485 41.1321 48.9992 41.1321 49.432C41.1321 49.8648 41.4692 50.2155 41.8852 50.2155H48.6019C49.2238 50.2155 49.7298 50.7413 49.7298 51.3878V52.5569H30.4307V51.3878C30.4307 50.7413 30.9381 50.2155 31.5616 50.2155H38.2382C38.6542 50.2155 38.9913 49.8648 38.9913 49.432C38.9913 48.9992 38.6542 48.6485 38.2382 48.6485H33.8939V43.5382C33.8939 43.3213 34.0713 43.1381 34.2809 43.1381H37.3938H42.5313H45.8796ZM41.4793 14.9572L38.1469 18.5114V14.3072V11.4028L41.4793 14.9572ZM39.1804 10.2612H41.7782V13.032L39.1804 10.2612ZM41.7782 16.8823V23.6563V23.9908L38.4457 20.4365L41.7782 16.8823ZM41.4793 25.9161L38.1469 29.4704V23.6563V22.3617L41.4793 25.9161ZM41.7782 27.8413V33.0055V34.9499L38.4459 31.3956L41.7782 27.8413ZM41.4793 36.8752L38.1469 40.4294V33.3208L41.4793 36.8752ZM41.7782 38.8003V41.571H39.1804L41.7782 38.8003ZM42.5313 8.69417H37.4037C37.4032 8.69417 37.4026 8.69417 37.402 8.69417H37.3938H35.4389V2.2029H44.4861V8.69417H42.5313Z" fill="#122C82"></path><path d="M15.0472 38.47C15.0472 37.8242 14.5432 37.2989 13.9238 37.2989H4.67701C4.0559 37.2989 3.55066 37.8242 3.55066 38.47V41.6659C3.55066 42.3117 4.0559 42.837 4.67701 42.837H13.9238C14.5433 42.837 15.0472 42.3117 15.0472 41.6659V38.47ZM8.54726 41.27H5.05675V38.8659H8.54736V41.27H8.54726ZM13.5412 41.27H10.0534V38.8659H13.5411V41.27H13.5412Z" fill="#122C82"></path><path d="M13.9237 45.1783H4.67701C4.0559 45.1783 3.55066 45.7036 3.55066 46.3494V49.5453C3.55066 50.191 4.0559 50.7163 4.67701 50.7163H13.9238C14.5433 50.7163 15.0472 50.191 15.0472 49.5453V46.3494C15.0472 45.7036 14.5432 45.1783 13.9237 45.1783ZM8.54726 49.1493H5.05675V46.7453H8.54736V49.1493H8.54726ZM13.5412 49.1493H10.0534V46.7453H13.5411V49.1493H13.5412Z" fill="#122C82"></path></svg>