<svg width="51" height="50" viewBox="0 0 51 50" fill="none" xmlns="http://www.w3.org/2000/svg"><g clip-path="url(#clip0_174_810)"><path d="M37.3842 13.8604C37.2026 13.6787 36.9507 13.5742 36.6938 13.5742C36.437 13.5742 36.1851 13.6787 36.0034 13.8604C35.8218 14.042 35.7173 14.293 35.7173 14.5508C35.7173 14.8076 35.8217 15.0596 36.0034 15.2412C36.1852 15.4229 36.437 15.5274 36.6938 15.5274C36.9507 15.5274 37.2026 15.4229 37.3842 15.2412C37.5658 15.0596 37.6704 14.8076 37.6704 14.5508C37.6704 14.294 37.5659 14.042 37.3842 13.8604Z" fill="#122C82"></path><path d="M15.4046 27.5391H7.59216C7.0529 27.5391 6.6156 27.9763 6.6156 28.5157V36.3281C6.6156 36.8675 7.0529 37.3047 7.59216 37.3047H15.4046C15.9439 37.3047 16.3812 36.8675 16.3812 36.3281V28.5157C16.3812 27.9763 15.944 27.5391 15.4046 27.5391ZM14.4281 35.3516H8.56872V29.4922H14.4281V35.3516Z" fill="#122C82"></path><path d="M50.1533 20.4846C49.7884 20.3333 49.3683 20.4171 49.0891 20.6962L39.1381 30.6472C39.138 30.6474 39.1378 30.6475 39.1376 30.6476C39.1374 30.6478 39.1373 30.6479 39.1372 30.6481L27.5373 42.2481C27.5371 42.2483 27.537 42.2484 27.5368 42.2486C27.5366 42.2488 27.5365 42.2489 27.5363 42.2491L21.4524 48.333C21.1732 48.6123 21.0896 49.0324 21.2407 49.3972C21.3919 49.7622 21.7479 50 22.1429 50H49.7796C50.3189 50 50.7562 49.5628 50.7562 49.0235V21.3868C50.7562 20.9919 50.5183 20.6358 50.1533 20.4846ZM48.803 48.0469H24.5006L28.2273 44.3203L29.1595 45.2525C29.3502 45.4432 29.6001 45.5385 29.85 45.5385C30.0999 45.5385 30.3498 45.4432 30.5406 45.2525C30.9219 44.8712 30.9219 44.2528 30.5406 43.8714L29.6083 42.9391L32.0943 40.4532L33.0264 41.3853C33.2171 41.576 33.467 41.6714 33.7169 41.6714C33.9668 41.6714 34.2167 41.5759 34.4075 41.3853C34.7888 41.004 34.7888 40.3856 34.4075 40.0043L33.4752 39.072L35.9612 36.5861L36.8934 37.5183C37.0841 37.7091 37.334 37.8044 37.5839 37.8044C37.8338 37.8044 38.0837 37.7091 38.2744 37.5183C38.6558 37.137 38.6558 36.5186 38.2744 36.1372L37.3422 35.205L39.8281 32.7191L40.7603 33.6514C40.951 33.8421 41.2009 33.9374 41.4508 33.9374C41.7007 33.9374 41.9506 33.8421 42.1413 33.6514C42.5227 33.27 42.5227 32.6516 42.1413 32.2702L41.2091 31.338L43.695 28.852L44.6272 29.7842C44.8179 29.9749 45.0678 30.0702 45.3177 30.0702C45.5676 30.0702 45.8175 29.9748 46.0082 29.7842C46.3896 29.4028 46.3896 28.7845 46.0082 28.4031L45.076 27.4709L48.803 23.7444V48.0469Z" fill="#122C82"></path><path d="M45.2706 32.2727C44.9057 32.1214 44.4856 32.2051 44.2064 32.4843L33.2407 43.4501C32.9615 43.7294 32.8778 44.1494 33.0289 44.5143C33.1801 44.8793 33.5362 45.1172 33.9312 45.1172H44.8969C45.4361 45.1172 45.8734 44.68 45.8734 44.1406V33.1749C45.8734 32.78 45.6355 32.4238 45.2706 32.2727ZM43.9203 43.1641H36.2889L43.9203 35.5325V43.1641Z" fill="#122C82"></path><path d="M45.9771 14.5765C45.7082 14.3077 45.308 14.2192 44.9507 14.35L38.2827 16.7919C38.1494 16.8407 38.0284 16.918 37.9279 17.0183L36.053 18.8932L23.8102 6.6504C23.627 6.46729 23.3787 6.36437 23.1197 6.36437C22.8607 6.36437 22.6123 6.46729 22.4292 6.6504L7.69258 21.387H4.09073L23.1197 2.35793L33.562 12.8002C33.9434 13.1815 34.5616 13.1815 34.9431 12.8002C35.3245 12.4188 35.3245 11.8005 34.9431 11.419L23.8103 0.286254C23.4289 -0.0950925 22.8107 -0.0950925 22.4292 0.286254L1.04249 21.6729C0.763291 21.9522 0.679698 22.3722 0.830772 22.7372C0.981943 23.1022 1.338 23.3401 1.73302 23.3401H2.70958V49.0236C2.70958 49.563 3.14688 50.0002 3.68614 50.0002H19.2121C19.7513 50.0002 20.1886 49.563 20.1886 49.0236C20.1886 48.4843 19.7513 48.0471 19.2121 48.0471H4.6627V23.3401H8.09707C8.35605 23.3401 8.60439 23.2372 8.78759 23.0541L23.1197 8.72198L34.6718 20.2742L20.19 34.7561V25.9768H27.0259C27.5652 25.9768 28.0025 25.5396 28.0025 25.0003C28.0025 24.4609 27.5652 24.0237 27.0259 24.0237H19.2135C18.6742 24.0237 18.2369 24.4609 18.2369 25.0003V36.3284C18.2369 36.4423 18.2574 36.5511 18.2932 36.6528L17.4183 37.5277C15.8724 39.0736 15.8724 41.589 17.4183 43.1349C18.1914 43.9079 19.2065 44.2945 20.2219 44.2944C21.2372 44.2944 22.2527 43.9078 23.0256 43.135L31.2611 34.8995C31.6424 34.5181 31.6424 33.8997 31.2611 33.5184C30.8797 33.1371 30.2616 33.1371 29.8799 33.5184L23.6405 39.7578L20.7955 36.9128L38.6379 19.0704L41.4829 21.9154L34.6651 28.7334C34.2837 29.1147 34.2837 29.7331 34.6651 30.1144C35.0465 30.4958 35.6647 30.4958 36.0462 30.1144L43.5351 22.6256C43.6354 22.5252 43.7127 22.4041 43.7615 22.2709L46.2034 15.6028C46.3342 15.2458 46.2459 14.8453 45.9771 14.5765ZM22.2595 41.1388L21.6445 41.7538C21.2645 42.1338 20.7594 42.3431 20.222 42.3431C19.6846 42.3431 19.1795 42.1338 18.7996 41.7538C18.4195 41.3739 18.2103 40.8687 18.2103 40.3314C18.2103 39.7941 18.4194 39.2888 18.7995 38.9088L19.4145 38.2938L22.2595 41.1388ZM42.464 20.1341L40.4193 18.0893L43.6456 16.9078L42.464 20.1341Z" fill="#122C82"></path><path d="M33.636 31.1426C33.4545 30.9609 33.2025 30.8564 32.9457 30.8564C32.6888 30.8564 32.4369 30.9609 32.2552 31.1426C32.0736 31.3252 31.9691 31.5762 31.9691 31.833C31.9691 32.0908 32.0735 32.3418 32.2552 32.5244C32.4369 32.7061 32.6879 32.8096 32.9457 32.8096C33.2025 32.8096 33.4545 32.7061 33.636 32.5244C33.8176 32.3418 33.9222 32.0898 33.9222 31.833C33.9222 31.5762 33.8177 31.3252 33.636 31.1426Z" fill="#122C82"></path><path d="M23.1193 14.7461C21.0731 14.7461 19.4083 16.4109 19.4083 18.4571C19.4083 20.5032 21.0731 22.168 23.1193 22.168C25.1654 22.168 26.8302 20.5032 26.8302 18.4571C26.8302 16.4109 25.1654 14.7461 23.1193 14.7461ZM23.1193 20.2149C22.15 20.2149 21.3614 19.4264 21.3614 18.4571C21.3614 17.4878 22.15 16.6992 23.1193 16.6992C24.0885 16.6992 24.8771 17.4878 24.8771 18.4571C24.8771 19.4263 24.0885 20.2149 23.1193 20.2149Z" fill="#122C82"></path></g><defs><clipPath id="clip0_174_810"><rect width="50" height="50" fill="#ffffff" transform="translate(0.756348)"></rect></clipPath></defs></svg>