<svg width="51" height="51" viewBox="0 0 51 51" fill="none" xmlns="http://www.w3.org/2000/svg"><path d="M19.4954 20.6499L16.3704 6.5874C22.3079 3.61865 29.1829 3.61865 35.1204 6.5874L31.9954 20.6499" stroke="#122C82" stroke-width="2.5" stroke-miterlimit="10" stroke-linecap="round" stroke-linejoin="round"></path><path d="M34.6516 9.0874C39.6516 12.0562 42.9329 17.5249 42.9329 23.7749V26.8999L46.0579 30.0249H25.7454H5.43286L8.55786 26.8999V23.7749C8.55786 17.5249 11.8391 12.0562 16.8391 9.0874" stroke="#122C82" stroke-width="2.5" stroke-miterlimit="10" stroke-linecap="round" stroke-linejoin="round"></path><path d="M13.0891 30.1812C12.9329 31.1187 12.7766 32.2124 12.7766 33.1499C12.7766 34.2437 12.9329 35.1812 13.0891 36.1187C14.6516 35.9624 16.2141 36.5874 16.9954 38.1499C17.7766 39.5562 17.6204 41.2749 16.6829 42.5249C18.0891 43.9312 19.9641 45.0249 21.9954 45.6499C22.6204 44.2437 24.0266 43.1499 25.7454 43.1499C27.4641 43.1499 28.8704 44.2437 29.4954 45.6499C31.5266 45.0249 33.2454 43.9312 34.8079 42.5249C33.8704 41.2749 33.7141 39.5562 34.4954 38.1499C35.2766 36.7437 36.9954 35.9624 38.4016 36.1187C38.5579 35.1812 38.7141 34.0874 38.7141 33.1499C38.7141 32.0562 38.5579 31.1187 38.4016 30.1812" stroke="#122C82" stroke-width="2.5" stroke-miterlimit="10" stroke-linecap="round" stroke-linejoin="round"></path><path d="M22.3079 30.0249C21.5266 30.8062 21.0579 31.8999 21.0579 33.1499C21.0579 35.8062 23.0891 37.8374 25.7454 37.8374C28.4016 37.8374 30.4329 35.8062 30.4329 33.1499C30.4329 31.8999 29.9641 30.8062 29.1829 30.0249" stroke="#122C82" stroke-width="2.5" stroke-miterlimit="10" stroke-linecap="round" stroke-linejoin="round"></path></svg>