<svg width="37" height="46" viewBox="0 0 37 46" fill="none" xmlns="http://www.w3.org/2000/svg"><path d="M21.4604 5.8191C20.9893 5.34811 20.3953 4.99303 19.7326 4.8108L19.7302 4.80846H19.7257H19.7232L19.7209 4.80621H19.7161H19.7139L19.7115 4.80377H19.7092L19.7044 4.80152H19.7022C19.4275 4.72809 19.1412 4.68307 18.8454 4.67125L18.8359 4.66901H18.8311H18.8288H18.8193H18.8122H18.8027H18.7957H18.7861H18.7791H18.7696H18.7625H18.753L18.746 4.66676H18.7363H18.7294H18.7199H18.7127H18.7033H18.6938H18.6866H18.6772H18.6702H18.6605H18.651H18.6441H18.6346H18.6274H18.618L18.6086 4.66901H18.6013H18.5849H18.5753H18.5658H18.5589H18.5492H18.5422H18.5328H18.5256L18.5161 4.67125H18.5092H18.4995H18.49H18.483L18.4333 4.67369H18.4237V4.67594H18.4167L18.3764 4.67838H18.3741H18.3671C17.4061 4.75406 16.5399 5.17535 15.8938 5.8192C15.1838 6.5316 14.7411 7.51617 14.7411 8.6024C14.7411 9.69117 15.1838 10.6757 15.8938 11.3858C16.6061 12.0982 17.5908 12.5384 18.6771 12.5384C19.7635 12.5384 20.748 12.0982 21.4605 11.3858C22.1729 10.6757 22.6132 9.69117 22.6132 8.6024C22.6131 7.51607 22.1728 6.5315 21.4604 5.8191ZM19.8652 7.41656C19.5622 7.11354 19.1409 6.92428 18.677 6.92428C18.2132 6.92428 17.7941 7.11354 17.4913 7.41656C17.1884 7.71959 16.999 8.13844 16.999 8.6023C16.999 9.06627 17.1884 9.48746 17.4913 9.79049C17.7941 10.0935 18.2131 10.2804 18.677 10.2804C19.1409 10.2804 19.5622 10.0935 19.8652 9.79049C20.168 9.48746 20.3552 9.06627 20.3552 8.6023C20.3552 8.13844 20.168 7.71959 19.8652 7.41656ZM18.677 6.34205C19.3017 6.34205 19.8652 6.59527 20.2746 7.00475C20.6839 7.41412 20.9372 7.97984 20.9372 8.60221C20.9372 9.22701 20.6839 9.79039 20.2769 10.1998C19.8651 10.6092 19.3017 10.8626 18.6769 10.8626C18.0545 10.8626 17.4888 10.6092 17.0817 10.2022C16.6699 9.79029 16.4166 9.22701 16.4166 8.60211C16.4166 7.97975 16.6699 7.41402 17.0793 7.00699C17.4889 6.59527 18.0547 6.34205 18.677 6.34205ZM17.851 4.15983C18.0238 4.12916 18.1989 4.10777 18.3764 4.09596L18.3859 4.09371H18.3883L18.4712 4.08893H18.4806H18.4901H18.4996H18.5044H18.5093H18.5186H18.5281L18.5376 4.08649H18.5472H18.5567H18.5613H18.5661H18.5756H18.5852H18.5947H18.6041H18.6135H18.6208H18.6229H18.6326L18.6395 4.08424H18.649H18.6587H18.6681H18.6776H18.687H18.6967H18.7061H18.7156L18.725 4.08649H18.7346H18.7368H18.744H18.7535H18.7606H18.7701H18.7796H18.789H18.7938H18.7986H18.8081H18.8176H18.827L18.8366 4.08893H18.8461H18.8531H18.8554H18.8649H18.872H18.8815L18.891 4.09117L18.9761 4.09596H18.9858C19.1609 4.10777 19.336 4.12916 19.5064 4.15983V1.72682C19.5064 1.49957 19.4118 1.29127 19.2627 1.14225C19.1135 0.993127 18.9052 0.898499 18.6781 0.898499C18.4532 0.898499 18.245 0.993127 18.096 1.14225C17.9445 1.29127 17.8521 1.49957 17.8521 1.72682V4.15983H17.851ZM21.5432 35.9459H15.8133C15.6808 35.9459 15.56 36.0002 15.4749 36.0855C15.3873 36.173 15.3328 36.2938 15.3328 36.4263V42.1564C15.3328 42.2888 15.3873 42.4072 15.4749 42.4948C15.56 42.5824 15.6808 42.6345 15.8133 42.6345H21.5432C21.6757 42.6345 21.794 42.5825 21.8817 42.4948C21.9692 42.4073 22.0214 42.2889 22.0214 42.1564V36.4263C22.0214 36.2985 21.9741 36.1848 21.8935 36.0997L21.8817 36.0878C21.794 36.0001 21.6757 35.9459 21.5432 35.9459ZM19.8201 38.1469C19.5291 37.8559 19.1244 37.676 18.677 37.676C18.2321 37.676 17.8274 37.8559 17.5362 38.1469C17.2427 38.4405 17.0629 38.8451 17.0629 39.2901C17.0629 39.7374 17.2426 40.1421 17.5338 40.4333C17.8273 40.7267 18.232 40.9066 18.6769 40.9066C19.1243 40.9066 19.529 40.7267 19.82 40.4333C20.1135 40.1421 20.2933 39.7374 20.2933 39.2901C20.2934 38.8451 20.1136 38.4405 19.8201 38.1469ZM27.8696 31.5389C27.7041 31.5389 27.569 31.404 27.569 31.2383C27.569 31.0726 27.7041 30.9377 27.8696 30.9377H35.8505C36.0162 30.9377 36.151 31.0726 36.151 31.2383C36.151 31.404 36.0162 31.5389 35.8505 31.5389H27.8696ZM2.50007 31.5389C2.33435 31.5389 2.19949 31.404 2.19949 31.2383C2.19949 31.0726 2.33435 30.9377 2.50007 30.9377H9.71638C9.8821 30.9377 10.0172 31.0726 10.0172 31.2383C10.0172 31.404 9.8821 31.5389 9.71638 31.5389H2.50007ZM19.8273 30.3483H18.0473V31.172V31.1791V31.2312V31.2382V31.2453V32.1281H19.8273V31.2453V31.2382V31.2312V30.3483ZM13.3045 30.9377H15.5765L15.5009 30.9093C14.8192 30.6395 14.1778 30.2917 13.5885 29.875L13.3045 30.9377ZM24.201 31.5389H20.4309V32.4288C20.4309 32.5968 20.296 32.7318 20.1302 32.7318H17.7469C17.5812 32.7318 17.4464 32.5968 17.4464 32.4288V31.5389H13.2264C13.198 31.5389 13.1719 31.5366 13.1459 31.5293L11.4678 37.7942L11.4655 37.799C11.3709 38.154 11.1365 38.438 10.8407 38.6108C10.6347 38.7291 10.4005 38.793 10.1566 38.7908L8.99226 43.0012C8.95193 43.155 8.79109 43.2474 8.63718 43.2071C8.48347 43.1668 8.39109 43.0083 8.43132 42.852L9.59099 38.6605C9.34011 38.5421 9.13669 38.3504 9.00408 38.1184L8.99705 38.1066C8.82898 37.8109 8.77224 37.451 8.86687 37.0984L15.6122 11.9229C16.282 12.5406 17.1388 12.9595 18.0879 13.0826L13.7493 29.2762C13.7849 29.2857 13.8205 29.2999 13.851 29.3235C14.4239 29.7377 15.0511 30.0857 15.7208 30.3483C16.27 30.5636 16.8475 30.7247 17.4462 30.824V30.0478C17.4462 29.8821 17.581 29.7448 17.7468 29.7448H20.1301C20.2958 29.7448 20.4307 29.882 20.4307 30.0478V30.7885C20.975 30.6868 21.5029 30.5306 22.0046 30.3294C22.5844 30.0975 23.1359 29.8017 23.6424 29.4561L19.2567 13.085C20.2057 12.9644 21.0625 12.5478 21.7324 11.9324L28.4755 37.0984C28.5702 37.451 28.5133 37.8109 28.3475 38.1066L28.3406 38.1184C28.2246 38.3171 28.0588 38.4876 27.8553 38.6059L28.9132 42.8519C28.9534 43.0083 28.8611 43.1667 28.7074 43.207C28.5511 43.2472 28.3926 43.1549 28.3524 43.0011L27.3038 38.7859C27.0199 38.812 26.7405 38.7457 26.5039 38.6107C26.2057 38.4379 25.9737 38.1539 25.8767 37.7989L24.201 31.5389ZM23.8059 30.0668C23.3088 30.391 22.781 30.6656 22.2273 30.888L22.1019 30.9377H24.0402L23.8059 30.0668ZM28.0803 21.267H27.226V22.1238H27.6447H27.6544H27.6613H28.0803V21.267ZM26.923 20.6635H28.381C28.5489 20.6635 28.684 20.7985 28.684 20.9666V22.4245C28.684 22.5901 28.5489 22.7251 28.381 22.7251H27.9502C27.929 23.3807 27.8366 24.0197 27.6828 24.6351C27.5029 25.364 27.2306 26.0623 26.8852 26.7108C26.8071 26.8575 26.6248 26.912 26.4781 26.8338C26.3314 26.7558 26.2768 26.5735 26.355 26.4291C26.6768 25.8233 26.9302 25.1747 27.1007 24.4907C27.2401 23.9251 27.3255 23.3334 27.3468 22.7251H26.9231C26.7574 22.7251 26.6225 22.5901 26.6225 22.4245V20.9666C26.6224 20.7984 26.7572 20.6635 26.923 20.6635ZM10.4524 21.267H9.59568V22.1238H10.0171H10.0241H10.0311H10.4524V21.267ZM9.29509 20.6635H10.7531C10.9212 20.6635 11.0561 20.7985 11.0561 20.9666V22.4245C11.0561 22.5901 10.9213 22.7251 10.7531 22.7251H10.3317C10.3508 23.3144 10.4313 23.8825 10.5637 24.4292C10.7222 25.0919 10.9591 25.7237 11.2642 26.3154C11.3399 26.4645 11.2833 26.6444 11.1364 26.7202C10.9874 26.7983 10.8052 26.7391 10.7295 26.5923C10.4052 25.9581 10.1496 25.2811 9.97927 24.571C9.83484 23.9747 9.74958 23.357 9.72839 22.7251H9.29519C9.12947 22.7251 8.99226 22.5901 8.99226 22.4245V20.9666C8.99216 20.7984 9.12937 20.6635 9.29509 20.6635ZM7.26912 44.3692C7.10339 44.3692 6.96853 44.2342 6.96853 44.0687C6.96853 43.9031 7.10339 43.7681 7.26912 43.7681H30.0589C30.2246 43.7681 30.3594 43.9031 30.3594 44.0687C30.3594 44.2342 30.2246 44.3692 30.0589 44.3692H7.26912ZM35.8174 43.768C35.9853 43.768 36.1204 43.903 36.1204 44.0686C36.1204 44.2341 35.9853 44.3691 35.8174 44.3691H33.1854C33.0198 44.3691 32.8849 44.2341 32.8849 44.0686C32.8849 43.903 33.0198 43.768 33.1854 43.768H35.8174ZM27.749 45.2165C27.9146 45.2165 28.0495 45.3514 28.0495 45.517C28.0495 45.6827 27.9146 45.8201 27.749 45.8201H15.818C15.6523 45.8201 15.5175 45.6828 15.5175 45.517C15.5175 45.3513 15.6523 45.2165 15.818 45.2165H27.749ZM0.732105 45.8201C0.566382 45.8201 0.431519 45.6828 0.431519 45.517C0.431519 45.3513 0.566382 45.2165 0.732105 45.2165H5.99802C6.16375 45.2165 6.2988 45.3514 6.2988 45.517C6.2988 45.6827 6.16375 45.8201 5.99802 45.8201H0.732105ZM10.6394 45.8201C10.4737 45.8201 10.3388 45.6828 10.3388 45.517C10.3388 45.3513 10.4737 45.2165 10.6394 45.2165H13.0418C13.2075 45.2165 13.3424 45.3514 13.3424 45.517C13.3424 45.6827 13.2075 45.8201 13.0418 45.8201H10.6394ZM18.677 37.0938C19.2829 37.0938 19.8319 37.3399 20.2297 37.7375C20.6297 38.1376 20.8757 38.6867 20.8757 39.2901C20.8757 39.896 20.6296 40.4451 20.2318 40.8426C19.8318 41.2427 19.2828 41.4888 18.6769 41.4888C18.0733 41.4888 17.5243 41.2426 17.1244 40.845C16.7266 40.445 16.4806 39.8959 16.4806 39.29C16.4806 38.6865 16.7267 38.1375 17.1244 37.7374C17.5244 37.3398 18.0735 37.0938 18.677 37.0938Z" fill-rule="evenodd" clip-rule="evenodd" fill="#122C82"></path></svg>