<svg width="42" height="44" viewBox="0 0 42 44" fill="none" xmlns="http://www.w3.org/2000/svg"><mask id="path-1-inside-1_174_1120" fill="#ffffff"><path d="M21.2553 12.1855C20.8786 12.0514 20.4671 12.0514 20.0903 12.1855C19.8432 12.2725 19.6186 12.4137 19.4331 12.5986L13.8344 18.1914C13.6029 18.4218 13.4404 18.7123 13.3654 19.0302C13.2903 19.3481 13.3056 19.6806 13.4096 19.9902L14.3374 22.7705L15.4487 22.4004L14.5219 19.6191C14.4875 19.5159 14.4826 19.4051 14.5076 19.2992C14.5326 19.1933 14.5866 19.0965 14.6635 19.0195L20.0874 13.6015V20.3457C19.5417 20.4882 19.0666 20.8246 18.7511 21.292C18.4355 21.7594 18.301 22.3258 18.3729 22.8852C18.4447 23.4445 18.7179 23.9586 19.1413 24.3311C19.5647 24.7036 20.1093 24.9091 20.6733 24.9091C21.2373 24.9091 21.7819 24.7036 22.2053 24.3311C22.6288 23.9586 22.9019 23.4445 22.9737 22.8852C23.0456 22.3258 22.9111 21.7594 22.5955 21.292C22.28 20.8246 21.8049 20.4882 21.2592 20.3457V13.6015L26.6821 19.0254C26.759 19.1023 26.813 19.1992 26.8381 19.3051C26.8631 19.411 26.8581 19.5217 26.8237 19.625L23.7182 28.9414H17.6255L16.1372 24.4707C16.1146 24.3956 16.0773 24.3257 16.0273 24.2653C15.9772 24.2049 15.9156 24.1551 15.846 24.119C15.7764 24.0828 15.7002 24.061 15.622 24.0548C15.5438 24.0487 15.4652 24.0582 15.3908 24.083C15.3164 24.1078 15.2477 24.1473 15.1888 24.1991C15.1299 24.2509 15.082 24.314 15.048 24.3847C15.014 24.4554 14.9945 24.5322 14.9907 24.6105C14.9869 24.6889 14.9988 24.7672 15.0258 24.8408L16.4135 29.0029C15.9772 29.1132 15.59 29.3658 15.3132 29.7208C15.0364 30.0757 14.8858 30.5128 14.8852 30.9629V31.5566C14.8857 32.0929 15.099 32.607 15.4782 32.9861C15.8573 33.3653 16.3714 33.5786 16.9077 33.5791H17.4858V37.6738C17.4858 38.14 17.671 38.5871 18.0007 38.9168C18.3303 39.2464 18.7774 39.4316 19.2436 39.4316H22.102C22.5682 39.4316 23.0153 39.2464 23.345 38.9168C23.6746 38.5871 23.8598 38.14 23.8598 37.6738V33.5791H24.4379C24.9742 33.5786 25.4883 33.3653 25.8675 32.9861C26.2466 32.607 26.4599 32.0929 26.4604 31.5566V30.9629C26.4598 30.5128 26.3092 30.0757 26.0324 29.7208C25.7556 29.3658 25.3685 29.1132 24.9321 29.0029L27.936 19.9941C28.041 19.684 28.0569 19.3506 27.9818 19.0319C27.9067 18.7132 27.7436 18.422 27.5112 18.1914L21.9155 12.5957C21.7302 12.4109 21.506 12.2697 21.2592 12.1826L21.2553 12.1855ZM22.6879 37.6738C22.6879 37.8292 22.6262 37.9782 22.5163 38.0881C22.4064 38.198 22.2574 38.2598 22.102 38.2598H19.2436C19.0882 38.2598 18.9392 38.198 18.8293 38.0881C18.7194 37.9782 18.6577 37.8292 18.6577 37.6738V33.5791H22.6879V37.6738ZM25.2885 30.9629V31.5566C25.2883 31.7821 25.1986 31.9983 25.0391 32.1578C24.8797 32.3173 24.6635 32.407 24.4379 32.4072H16.9077C16.6822 32.407 16.466 32.3173 16.3065 32.1578C16.1471 31.9983 16.0574 31.7821 16.0571 31.5566V30.9629C16.0574 30.7373 16.147 30.521 16.3065 30.3614C16.4659 30.2017 16.6821 30.1118 16.9077 30.1113H24.4379C24.6635 30.1118 24.8797 30.2017 25.0392 30.3614C25.1986 30.521 25.2883 30.7373 25.2885 30.9629ZM21.8247 22.5859C21.8247 22.8131 21.7573 23.0352 21.6311 23.2241C21.5048 23.4129 21.3254 23.5601 21.1155 23.647C20.9056 23.7339 20.6746 23.7566 20.4518 23.7122C20.229 23.6678 20.0244 23.5584 19.8638 23.3976C19.7032 23.2369 19.5939 23.0322 19.5497 22.8094C19.5055 22.5865 19.5284 22.3556 19.6155 22.1458C19.7026 21.9359 19.8499 21.7566 20.0389 21.6306C20.2279 21.5045 20.45 21.4373 20.6772 21.4375C20.9816 21.4377 21.2735 21.5589 21.4886 21.7742C21.7038 21.9895 21.8247 22.2815 21.8247 22.5859Z"></path></mask><path d="M21.2553 12.1855C20.8786 12.0514 20.4671 12.0514 20.0903 12.1855C19.8432 12.2725 19.6186 12.4137 19.4331 12.5986L13.8344 18.1914C13.6029 18.4218 13.4404 18.7123 13.3654 19.0302C13.2903 19.3481 13.3056 19.6806 13.4096 19.9902L14.3374 22.7705L15.4487 22.4004L14.5219 19.6191C14.4875 19.5159 14.4826 19.4051 14.5076 19.2992C14.5326 19.1933 14.5866 19.0965 14.6635 19.0195L20.0874 13.6015V20.3457C19.5417 20.4882 19.0666 20.8246 18.7511 21.292C18.4355 21.7594 18.301 22.3258 18.3729 22.8852C18.4447 23.4445 18.7179 23.9586 19.1413 24.3311C19.5647 24.7036 20.1093 24.9091 20.6733 24.9091C21.2373 24.9091 21.7819 24.7036 22.2053 24.3311C22.6288 23.9586 22.9019 23.4445 22.9737 22.8852C23.0456 22.3258 22.9111 21.7594 22.5955 21.292C22.28 20.8246 21.8049 20.4882 21.2592 20.3457V13.6015L26.6821 19.0254C26.759 19.1023 26.813 19.1992 26.8381 19.3051C26.8631 19.411 26.8581 19.5217 26.8237 19.625L23.7182 28.9414H17.6255L16.1372 24.4707C16.1146 24.3956 16.0773 24.3257 16.0273 24.2653C15.9772 24.2049 15.9156 24.1551 15.846 24.119C15.7764 24.0828 15.7002 24.061 15.622 24.0548C15.5438 24.0487 15.4652 24.0582 15.3908 24.083C15.3164 24.1078 15.2477 24.1473 15.1888 24.1991C15.1299 24.2509 15.082 24.314 15.048 24.3847C15.014 24.4554 14.9945 24.5322 14.9907 24.6105C14.9869 24.6889 14.9988 24.7672 15.0258 24.8408L16.4135 29.0029C15.9772 29.1132 15.59 29.3658 15.3132 29.7208C15.0364 30.0757 14.8858 30.5128 14.8852 30.9629V31.5566C14.8857 32.0929 15.099 32.607 15.4782 32.9861C15.8573 33.3653 16.3714 33.5786 16.9077 33.5791H17.4858V37.6738C17.4858 38.14 17.671 38.5871 18.0007 38.9168C18.3303 39.2464 18.7774 39.4316 19.2436 39.4316H22.102C22.5682 39.4316 23.0153 39.2464 23.345 38.9168C23.6746 38.5871 23.8598 38.14 23.8598 37.6738V33.5791H24.4379C24.9742 33.5786 25.4883 33.3653 25.8675 32.9861C26.2466 32.607 26.4599 32.0929 26.4604 31.5566V30.9629C26.4598 30.5128 26.3092 30.0757 26.0324 29.7208C25.7556 29.3658 25.3685 29.1132 24.9321 29.0029L27.936 19.9941C28.041 19.684 28.0569 19.3506 27.9818 19.0319C27.9067 18.7132 27.7436 18.422 27.5112 18.1914L21.9155 12.5957C21.7302 12.4109 21.506 12.2697 21.2592 12.1826L21.2553 12.1855ZM22.6879 37.6738C22.6879 37.8292 22.6262 37.9782 22.5163 38.0881C22.4064 38.198 22.2574 38.2598 22.102 38.2598H19.2436C19.0882 38.2598 18.9392 38.198 18.8293 38.0881C18.7194 37.9782 18.6577 37.8292 18.6577 37.6738V33.5791H22.6879V37.6738ZM25.2885 30.9629V31.5566C25.2883 31.7821 25.1986 31.9983 25.0391 32.1578C24.8797 32.3173 24.6635 32.407 24.4379 32.4072H16.9077C16.6822 32.407 16.466 32.3173 16.3065 32.1578C16.1471 31.9983 16.0574 31.7821 16.0571 31.5566V30.9629C16.0574 30.7373 16.147 30.521 16.3065 30.3614C16.4659 30.2017 16.6821 30.1118 16.9077 30.1113H24.4379C24.6635 30.1118 24.8797 30.2017 25.0392 30.3614C25.1986 30.521 25.2883 30.7373 25.2885 30.9629ZM21.8247 22.5859C21.8247 22.8131 21.7573 23.0352 21.6311 23.2241C21.5048 23.4129 21.3254 23.5601 21.1155 23.647C20.9056 23.7339 20.6746 23.7566 20.4518 23.7122C20.229 23.6678 20.0244 23.5584 19.8638 23.3976C19.7032 23.2369 19.5939 23.0322 19.5497 22.8094C19.5055 22.5865 19.5284 22.3556 19.6155 22.1458C19.7026 21.9359 19.8499 21.7566 20.0389 21.6306C20.2279 21.5045 20.45 21.4373 20.6772 21.4375C20.9816 21.4377 21.2735 21.5589 21.4886 21.7742C21.7038 21.9895 21.8247 22.2815 21.8247 22.5859Z" fill="#122C82"></path><path d="M21.2553 12.1855L20.2494 15.0119L21.7673 15.5521L23.0559 14.5851L21.2553 12.1855ZM19.4331 12.5986L17.3152 10.4738L17.3129 10.4762L19.4331 12.5986ZM13.8344 18.1914L15.9504 20.318L15.9547 20.3138L13.8344 18.1914ZM13.4096 19.9902L16.2554 19.0406L16.2535 19.0349L13.4096 19.9902ZM14.3374 22.7705L11.4916 23.7201L12.4407 26.5642L15.2853 25.6168L14.3374 22.7705ZM15.4487 22.4004L16.3966 25.2467L19.2434 24.2986L18.2948 21.452L15.4487 22.4004ZM14.5219 19.6191L17.3681 18.6707L17.3681 18.6706L14.5219 19.6191ZM14.6635 19.0195L12.5434 16.897L12.5424 16.898L14.6635 19.0195ZM20.0874 13.6015H23.0874V6.36443L17.9672 11.4791L20.0874 13.6015ZM20.0874 20.3457L20.8453 23.2484L23.0874 22.663V20.3457H20.0874ZM21.2592 20.3457H18.2592V22.663L20.5013 23.2484L21.2592 20.3457ZM21.2592 13.6015L23.3808 11.4804L18.2592 6.35798V13.6015H21.2592ZM26.6821 19.0254L24.5606 21.1465L24.561 21.1469L26.6821 19.0254ZM26.8237 19.625L29.6697 20.5737L29.6698 20.5735L26.8237 19.625ZM23.7182 28.9414V31.9414H25.8805L26.5643 29.8901L23.7182 28.9414ZM17.6255 28.9414L14.779 29.889L15.4623 31.9414H17.6255V28.9414ZM16.1372 24.4707L13.2635 25.3322L13.2765 25.3754L13.2908 25.4183L16.1372 24.4707ZM15.0258 24.8408L17.8718 23.8919L17.8576 23.8494L17.8422 23.8073L15.0258 24.8408ZM16.4135 29.0029L17.1487 31.9114L20.2816 31.1196L19.2595 28.054L16.4135 29.0029ZM14.8852 30.9629L11.8852 30.9588V30.9629H14.8852ZM14.8852 31.5566H11.8852L11.8852 31.5595L14.8852 31.5566ZM16.9077 33.5791L16.9048 36.5791H16.9077V33.5791ZM17.4858 33.5791H20.4858V30.5791H17.4858V33.5791ZM17.4858 37.6738H20.4858H17.4858ZM23.8598 33.5791V30.5791H20.8598V33.5791H23.8598ZM24.4379 33.5791V36.5791L24.4408 36.5791L24.4379 33.5791ZM26.4604 31.5566L29.4604 31.5595V31.5566H26.4604ZM26.4604 30.9629H29.4604L29.4604 30.9588L26.4604 30.9629ZM24.9321 29.0029L22.0861 28.054L21.0639 31.1195L24.1969 31.9114L24.9321 29.0029ZM27.936 19.9941L25.0945 19.0318L25.09 19.0452L27.936 19.9941ZM27.5112 18.1914L25.3898 20.3127L25.3984 20.3212L27.5112 18.1914ZM21.9155 12.5957L24.0368 10.4744L24.0343 10.4718L21.9155 12.5957ZM19.2436 38.2598V41.2598V38.2598ZM18.6577 33.5791V30.5791H15.6577V33.5791H18.6577ZM22.6879 33.5791H25.6879V30.5791H22.6879V33.5791ZM25.2885 30.9629H28.2885L28.2885 30.9594L25.2885 30.9629ZM25.2885 31.5566L28.2885 31.5601V31.5566H25.2885ZM24.4379 32.4072V35.4072L24.4414 35.4072L24.4379 32.4072ZM16.9077 32.4072L16.9042 35.4072H16.9077V32.4072ZM16.0571 31.5566H13.0571L13.0571 31.5601L16.0571 31.5566ZM16.0571 30.9629L13.0571 30.9594V30.9629H16.0571ZM16.9077 30.1113V27.1113L16.9008 27.1113L16.9077 30.1113ZM24.4379 30.1113L24.4448 27.1113H24.4379V30.1113ZM20.6772 21.4375L20.6798 18.4375L20.6772 21.4375ZM22.2612 9.3592C21.2339 8.99355 20.1118 8.99355 19.0844 9.3592L21.0962 15.0119C20.8224 15.1093 20.5233 15.1093 20.2494 15.0119L22.2612 9.3592ZM19.0941 9.35576C18.4252 9.59124 17.8174 9.97324 17.3152 10.4739L21.5509 14.7234C21.4198 14.8541 21.2611 14.9538 21.0865 15.0153L19.0941 9.35576ZM17.3129 10.4762L11.7142 16.069L15.9547 20.3138L21.5533 14.721L17.3129 10.4762ZM11.7185 16.0648C11.0902 16.6898 10.6494 17.4782 10.4457 18.3407L16.285 19.7197C16.2315 19.9464 16.1156 20.1537 15.9504 20.318L11.7185 16.0648ZM10.4457 18.3407C10.242 19.2032 10.2836 20.1055 10.5658 20.9456L16.2535 19.0349C16.3277 19.2557 16.3386 19.4929 16.285 19.7197L10.4457 18.3407ZM10.5639 20.9398L11.4916 23.7201L17.1831 21.8209L16.2554 19.0406L10.5639 20.9398ZM15.2853 25.6168L16.3966 25.2467L14.5008 19.5541L13.3894 19.9242L15.2853 25.6168ZM18.2948 21.452L17.3681 18.6707L11.6758 20.5675L12.6025 23.3488L18.2948 21.452ZM17.3681 18.6706C17.5098 19.096 17.5303 19.5524 17.4273 19.9887L11.5879 18.6097C11.4348 19.2578 11.4653 19.9358 11.6758 20.5676L17.3681 18.6706ZM17.4273 19.9887C17.3242 20.425 17.1017 20.824 16.7847 21.141L12.5424 16.898C12.0715 17.3689 11.7409 17.9616 11.5879 18.6097L17.4273 19.9887ZM16.7837 21.142L22.2075 15.724L17.9672 11.4791L12.5434 16.8971L16.7837 21.142ZM17.0874 13.6015V20.3457H23.0874V13.6015H17.0874ZM19.3295 17.443C18.078 17.7698 16.9884 18.5413 16.2647 19.6133L21.2374 22.9707C21.1448 23.1078 21.0054 23.2066 20.8453 23.2484L19.3295 17.443ZM16.2647 19.6133C15.5409 20.6853 15.2326 21.9843 15.3973 23.2672L21.3484 22.5031C21.3695 22.6673 21.33 22.8335 21.2374 22.9707L16.2647 19.6133ZM15.3973 23.2672C15.562 24.5501 16.1885 25.7291 17.1596 26.5835L21.1229 22.0788C21.2472 22.1881 21.3273 22.3389 21.3484 22.5031L15.3973 23.2672ZM17.1596 26.5835C18.1307 27.4378 19.3799 27.9091 20.6733 27.9091V21.9091C20.8388 21.9091 20.9987 21.9694 21.1229 22.0788L17.1596 26.5835ZM20.6733 27.9091C21.9668 27.9091 23.2159 27.4378 24.187 26.5835L20.2237 22.0788C20.3479 21.9694 20.5078 21.9091 20.6733 21.9091V27.9091ZM24.187 26.5835C25.1581 25.7291 25.7846 24.5501 25.9493 23.2672L19.9982 22.5031C20.0193 22.3389 20.0994 22.1881 20.2237 22.0788L24.187 26.5835ZM25.9493 23.2672C26.114 21.9843 25.8057 20.6853 25.0819 19.6133L20.1092 22.9707C20.0166 22.8335 19.9771 22.6673 19.9982 22.5031L25.9493 23.2672ZM25.0819 19.6133C24.3582 18.5413 23.2686 17.7698 22.0171 17.443L20.5013 23.2484C20.3412 23.2066 20.2018 23.1078 20.1092 22.9707L25.0819 19.6133ZM24.2592 20.3457V13.6015H18.2592V20.3457H24.2592ZM19.1377 15.7227L24.5606 21.1465L28.8036 16.9042L23.3808 11.4804L19.1377 15.7227ZM24.561 21.1469C24.2439 20.8299 24.0214 20.4309 23.9184 19.9946L29.7577 18.6156C29.6047 17.9674 29.2742 17.3747 28.8032 16.9039L24.561 21.1469ZM23.9184 19.9946C23.8153 19.5583 23.8358 19.1019 23.9776 18.6765L29.6698 20.5735C29.8804 19.9416 29.9108 19.2637 29.7577 18.6156L23.9184 19.9946ZM23.9776 18.6763L20.8722 27.9927L26.5643 29.8901L29.6697 20.5737L23.9776 18.6763ZM23.7182 25.9414H17.6255V31.9414H23.7182V25.9414ZM20.4719 27.9938L18.9836 23.5231L13.2908 25.4183L14.779 29.889L20.4719 27.9938ZM19.0108 23.6092C18.873 23.1494 18.6442 22.7219 18.3381 22.3522L13.7164 26.1784C13.5103 25.9295 13.3563 25.6417 13.2635 25.3322L19.0108 23.6092ZM18.3381 22.3522C18.0319 21.9824 17.6547 21.6779 17.2287 21.4566L14.4632 26.7813C14.1765 26.6324 13.9225 26.4274 13.7164 26.1784L18.3381 22.3522ZM17.2287 21.4566C16.8028 21.2354 16.3367 21.1019 15.8581 21.0641L15.386 27.0455C15.0638 27.0201 14.75 26.9302 14.4632 26.7813L17.2287 21.4566ZM15.8581 21.0641C15.3795 21.0264 14.8982 21.0851 14.4428 21.2367L16.3387 26.9293C16.0322 27.0314 15.7082 27.071 15.386 27.0455L15.8581 21.0641ZM14.4428 21.2367C13.9874 21.3884 13.567 21.63 13.2067 21.9471L17.1709 26.4511C16.9283 26.6646 16.6453 26.8272 16.3387 26.9293L14.4428 21.2367ZM13.2067 21.9471C12.8464 22.2643 12.5534 22.6506 12.3451 23.0831L17.7509 25.6864C17.6107 25.9775 17.4135 26.2376 17.1709 26.4511L13.2067 21.9471ZM12.3451 23.0831C12.1368 23.5155 12.0175 23.9854 11.9942 24.4649L17.9871 24.7561C17.9715 25.0789 17.8911 25.3952 17.7509 25.6864L12.3451 23.0831ZM11.9942 24.4649C11.9709 24.9444 12.0441 25.4237 12.2095 25.8743L17.8422 23.8073C17.9535 24.1107 18.0028 24.4333 17.9871 24.7561L11.9942 24.4649ZM12.1799 25.7897L13.5676 29.9518L19.2595 28.054L17.8718 23.8919L12.1799 25.7897ZM15.6784 26.0944C14.5953 26.3681 13.6344 26.995 12.9474 27.876L17.679 31.5655C17.5456 31.7366 17.359 31.8583 17.1487 31.9114L15.6784 26.0944ZM12.9474 27.876C12.2605 28.7569 11.8867 29.8417 11.8852 30.9588L17.8852 30.9669C17.8849 31.1838 17.8124 31.3945 17.679 31.5655L12.9474 27.876ZM11.8852 30.9629V31.5566H17.8852V30.9629H11.8852ZM11.8852 31.5595C11.8865 32.8904 12.4158 34.1664 13.3568 35.1075L17.5995 30.8648C17.7822 31.0476 17.885 31.2953 17.8852 31.5537L11.8852 31.5595ZM13.3568 35.1075C14.2979 36.0485 15.5739 36.5778 16.9048 36.5791L16.9106 30.5791C17.169 30.5793 17.4168 30.6821 17.5995 30.8648L13.3568 35.1075ZM16.9077 36.5791H17.4858V30.5791H16.9077V36.5791ZM14.4858 33.5791V37.6738H20.4858V33.5791H14.4858ZM14.4858 37.6738C14.4858 38.9357 14.9871 40.1458 15.8793 41.0381L20.122 36.7955C20.3549 37.0284 20.4858 37.3444 20.4858 37.6738H14.4858ZM15.8793 41.0381C16.7716 41.9304 17.9818 42.4316 19.2436 42.4316V36.4316C19.5731 36.4316 19.889 36.5625 20.122 36.7955L15.8793 41.0381ZM19.2436 42.4316H22.102V36.4316H19.2436V42.4316ZM22.102 42.4316C23.3639 42.4316 24.574 41.9304 25.4663 41.0381L21.2237 36.7955C21.4566 36.5625 21.7726 36.4316 22.102 36.4316V42.4316ZM25.4663 41.0381C26.3586 40.1458 26.8598 38.9357 26.8598 37.6738H20.8598C20.8598 37.3444 20.9907 37.0284 21.2237 36.7955L25.4663 41.0381ZM26.8598 37.6738V33.5791H20.8598V37.6738H26.8598ZM23.8598 36.5791H24.4379V30.5791H23.8598V36.5791ZM24.4408 36.5791C25.7717 36.5778 27.0477 36.0485 27.9888 35.1075L23.7462 30.8648C23.9289 30.6821 24.1766 30.5793 24.4351 30.5791L24.4408 36.5791ZM27.9888 35.1075C28.9299 34.1664 29.4591 32.8904 29.4604 31.5595L23.4604 31.5537C23.4607 31.2953 23.5634 31.0476 23.7462 30.8648L27.9888 35.1075ZM29.4604 31.5566V30.9629H23.4604V31.5566H29.4604ZM29.4604 30.9588C29.4589 29.8417 29.0851 28.7569 28.3982 27.876L23.6667 31.5655C23.5333 31.3945 23.4607 31.1838 23.4604 30.9669L29.4604 30.9588ZM28.3982 27.876C27.7113 26.995 26.7503 26.3681 25.6673 26.0944L24.1969 31.9114C23.9866 31.8583 23.8 31.7366 23.6667 31.5655L28.3982 27.876ZM27.778 29.9519L30.7819 20.9431L25.09 19.0452L22.0861 28.054L27.778 29.9519ZM30.7775 20.9565C31.0626 20.1144 31.1057 19.2092 30.9018 18.3438L25.0618 19.72C25.0081 19.492 25.0194 19.2536 25.0945 19.0318L30.7775 20.9565ZM30.9018 18.3438C30.6979 17.4785 30.2552 16.6877 29.624 16.0616L25.3984 20.3212C25.2321 20.1562 25.1155 19.9479 25.0618 19.72L30.9018 18.3438ZM29.6325 16.0701L24.0368 10.4744L19.7942 14.717L25.3899 20.3127L29.6325 16.0701ZM24.0343 10.4718C23.5328 9.97156 22.9259 9.58957 22.258 9.35374L20.2605 15.0115C20.0861 14.9499 19.9276 14.8502 19.7967 14.7195L24.0343 10.4718ZM19.4587 9.78304L19.4547 9.78597L23.0559 14.5851L23.0598 14.5822L19.4587 9.78304ZM19.6879 37.6738C19.6879 37.0336 19.9423 36.4195 20.395 35.9668L24.6377 40.2095C25.3102 39.537 25.6879 38.6249 25.6879 37.6738H19.6879ZM20.395 35.9668C20.8477 35.5141 21.4618 35.2598 22.102 35.2598V41.2598C23.0531 41.2598 23.9652 40.882 24.6377 40.2095L20.395 35.9668ZM22.102 35.2598H19.2436V41.2598H22.102V35.2598ZM19.2436 35.2598C19.8839 35.2598 20.4979 35.5141 20.9506 35.9668L16.708 40.2095C17.3805 40.882 18.2926 41.2598 19.2436 41.2598V35.2598ZM20.9506 35.9668C21.4033 36.4195 21.6577 37.0336 21.6577 37.6738H15.6577C15.6577 38.6249 16.0355 39.537 16.708 40.2095L20.9506 35.9668ZM21.6577 37.6738V33.5791H15.6577V37.6738H21.6577ZM18.6577 36.5791H22.6879V30.5791H18.6577V36.5791ZM19.6879 33.5791V37.6738H25.6879V33.5791H19.6879ZM22.2885 30.9629V31.5566H28.2885V30.9629H22.2885ZM22.2885 31.5532C22.2892 30.9843 22.5155 30.4388 22.9178 30.0365L27.1604 34.2791C27.8817 33.5579 28.2874 32.58 28.2885 31.5601L22.2885 31.5532ZM22.9178 30.0365C23.3201 29.6342 23.8656 29.4079 24.4345 29.4072L24.4414 35.4072C25.4613 35.406 26.4392 35.0003 27.1604 34.2791L22.9178 30.0365ZM24.4379 29.4072H16.9077V35.4072H24.4379V29.4072ZM16.9111 29.4072C17.4801 29.4079 18.0255 29.6342 18.4278 30.0365L14.1852 34.2791C14.9064 35.0003 15.8843 35.406 16.9042 35.4072L16.9111 29.4072ZM18.4278 30.0365C18.8302 30.4388 19.0564 30.9843 19.0571 31.5532L13.0571 31.5601C13.0583 32.58 13.464 33.5579 14.1852 34.2791L18.4278 30.0365ZM19.0571 31.5566V30.9629H13.0571V31.5566H19.0571ZM19.0571 30.9663C19.0564 31.5346 18.8306 32.0794 18.429 32.4815L14.1839 28.2413C13.4635 28.9625 13.0583 29.94 13.0571 30.9594L19.0571 30.9663ZM18.429 32.4815C18.0274 32.8835 17.4828 33.11 16.9146 33.1113L16.9008 27.1113C15.8813 27.1137 14.9044 27.52 14.1839 28.2413L18.429 32.4815ZM16.9077 33.1113H24.4379V27.1113H16.9077V33.1113ZM24.4311 33.1113C23.8628 33.11 23.3182 32.8835 22.9166 32.4815L27.1617 28.2413C26.4413 27.52 25.4643 27.1137 24.4448 27.1113L24.4311 33.1113ZM22.9166 32.4815C22.515 32.0794 22.2892 31.5346 22.2885 30.9663L28.2885 30.9594C28.2874 29.94 27.8822 28.9625 27.1617 28.2413L22.9166 32.4815ZM18.8247 22.5859C18.8247 22.2197 18.9333 21.8616 19.1368 21.5571L24.1253 24.891C24.5813 24.2087 24.8247 23.4065 24.8247 22.5859L18.8247 22.5859ZM19.1368 21.5571C19.3403 21.2526 19.6296 21.0152 19.968 20.8752L22.263 26.4189C23.0212 26.105 23.6693 25.5733 24.1253 24.891L19.1368 21.5571ZM19.968 20.8752C20.3065 20.7351 20.6788 20.6985 21.038 20.7701L19.8656 26.6544C20.6704 26.8147 21.5047 26.7328 22.263 26.4189L19.968 20.8752ZM21.038 20.7701C21.3972 20.8416 21.7271 21.0181 21.986 21.2772L17.7416 25.5181C18.3216 26.0986 19.0608 26.494 19.8656 26.6544L21.038 20.7701ZM21.986 21.2772C22.2449 21.5363 22.4211 21.8664 22.4924 22.2257L16.6071 23.3931C16.7667 24.198 17.1616 24.9375 17.7416 25.5181L21.986 21.2772ZM22.4924 22.2257C22.5637 22.5849 22.5268 22.9573 22.3864 23.2956L16.8446 20.9959C16.5301 21.7539 16.4474 22.5881 16.6071 23.3931L22.4924 22.2257ZM22.3864 23.2956C22.246 23.6339 22.0085 23.9229 21.7038 24.1262L18.3741 19.1349C17.6914 19.5903 17.1591 20.238 16.8446 20.9959L22.3864 23.2956ZM21.7038 24.1262C21.3991 24.3295 21.0409 24.4378 20.6747 24.4375L20.6798 18.4375C19.8591 18.4368 19.0567 18.6795 18.3741 19.1349L21.7038 24.1262ZM20.6747 24.4375C20.1839 24.4371 19.7133 24.2418 19.3664 23.8946L23.6109 19.6538C22.8336 18.8759 21.7794 18.4384 20.6798 18.4375L20.6747 24.4375ZM19.3664 23.8946C19.0195 23.5474 18.8247 23.0767 18.8247 22.5859L24.8247 22.5859C24.8247 21.4863 24.3881 20.4317 23.6109 19.6538L19.3664 23.8946Z" fill="#122C82" mask="url(#path-1-inside-1_174_1120)"></path><mask id="path-3-inside-2_174_1120" fill="#ffffff"><path d="M39.814 23.3672H38.5933C38.6569 23.256 38.6817 23.1268 38.6636 23C38.0585 18.6526 35.8996 14.6714 32.5863 11.7926C29.2729 8.91374 25.0292 7.33208 20.6399 7.34006C16.2506 7.34804 12.0127 8.94512 8.70986 11.836C5.407 14.7268 3.26264 18.7159 2.67334 23.0654C2.65956 23.1677 2.67304 23.2718 2.7124 23.3672H1.53271C1.37731 23.3672 1.22828 23.4289 1.11839 23.5388C1.00851 23.6487 0.946777 23.7977 0.946777 23.9531V27.0781C0.946777 27.2335 1.00851 27.3825 1.11839 27.4924C1.22828 27.6023 1.37731 27.664 1.53271 27.664H2.69092C2.66339 27.7467 2.65537 27.8346 2.66748 27.9209C3.05693 30.8331 4.14775 33.6073 5.84619 36.0049C5.93607 36.1316 6.07262 36.2175 6.22582 36.2436C6.37902 36.2697 6.53631 36.2339 6.66309 36.144C6.78987 36.0541 6.87575 35.9176 6.90185 35.7644C6.92795 35.6112 6.89212 35.4539 6.80225 35.3271C5.214 33.0846 4.1936 30.4902 3.82861 27.7666C3.82382 27.7318 3.81597 27.6975 3.80518 27.664H4.65772C4.81312 27.664 4.96215 27.6023 5.07204 27.4924C5.18192 27.3825 5.24365 27.2335 5.24365 27.0781V23.9531C5.24365 23.7977 5.18192 23.6487 5.07204 23.5388C4.96215 23.4289 4.81312 23.3672 4.65772 23.3672H3.79346C3.81313 23.3209 3.82691 23.2723 3.83447 23.2226C4.38519 19.1532 6.39098 15.4209 9.48085 12.716C12.5707 10.0111 16.5356 8.51676 20.6421 8.50925C24.7486 8.50175 28.719 9.98164 31.8187 12.6752C34.9184 15.3687 36.9378 19.0937 37.5034 23.1611C37.5132 23.2336 37.5367 23.3035 37.5728 23.3672H36.689C36.5336 23.3672 36.3845 23.4289 36.2747 23.5388C36.1648 23.6487 36.103 23.7977 36.103 23.9531V27.0781C36.103 27.2335 36.1648 27.3825 36.2747 27.4924C36.3845 27.6023 36.5336 27.664 36.689 27.664H37.5474C37.528 27.7103 37.5146 27.7589 37.5073 27.8086C37.0693 31.02 35.722 34.0392 33.6243 36.51C31.5265 38.9807 28.7659 40.8 25.6681 41.7532C22.5702 42.7063 19.2644 42.7536 16.1405 41.8894C13.0167 41.0253 10.2051 39.2857 8.0376 36.8759C7.98775 36.8138 7.92576 36.7625 7.85541 36.7251C7.78506 36.6878 7.70783 36.6652 7.62844 36.6587C7.54906 36.6522 7.46917 36.6619 7.39368 36.6873C7.31819 36.7127 7.24867 36.7533 7.18937 36.8064C7.13007 36.8596 7.08224 36.9243 7.04879 36.9966C7.01535 37.0689 6.997 37.1473 6.99486 37.2269C6.99272 37.3065 7.00684 37.3857 7.03635 37.4597C7.06586 37.5337 7.11015 37.6009 7.1665 37.6572C9.48365 40.2331 12.4892 42.0926 15.8286 43.0163C19.168 43.9399 22.7019 43.8892 26.0134 42.8701C29.3249 41.8511 32.2758 39.9061 34.5181 37.2648C36.7604 34.6234 38.2005 31.3959 38.6685 27.9629C38.6822 27.8606 38.6688 27.7565 38.6294 27.6611H39.8101C39.9655 27.6611 40.1145 27.5994 40.2244 27.4895C40.3343 27.3796 40.396 27.2306 40.396 27.0752V23.9531C40.396 23.7984 40.3348 23.6499 40.2258 23.5402C40.1167 23.4304 39.9687 23.3682 39.814 23.3672ZM4.07178 26.4922H2.11865V24.539H4.07178V26.4922ZM39.228 26.4922H37.2749V24.539H39.228V26.4922Z"></path></mask><path d="M39.814 23.3672H38.5933C38.6569 23.256 38.6817 23.1268 38.6636 23C38.0585 18.6526 35.8996 14.6714 32.5863 11.7926C29.2729 8.91374 25.0292 7.33208 20.6399 7.34006C16.2506 7.34804 12.0127 8.94512 8.70986 11.836C5.407 14.7268 3.26264 18.7159 2.67334 23.0654C2.65956 23.1677 2.67304 23.2718 2.7124 23.3672H1.53271C1.37731 23.3672 1.22828 23.4289 1.11839 23.5388C1.00851 23.6487 0.946777 23.7977 0.946777 23.9531V27.0781C0.946777 27.2335 1.00851 27.3825 1.11839 27.4924C1.22828 27.6023 1.37731 27.664 1.53271 27.664H2.69092C2.66339 27.7467 2.65537 27.8346 2.66748 27.9209C3.05693 30.8331 4.14775 33.6073 5.84619 36.0049C5.93607 36.1316 6.07262 36.2175 6.22582 36.2436C6.37902 36.2697 6.53631 36.2339 6.66309 36.144C6.78987 36.0541 6.87575 35.9176 6.90185 35.7644C6.92795 35.6112 6.89212 35.4539 6.80225 35.3271C5.214 33.0846 4.1936 30.4902 3.82861 27.7666C3.82382 27.7318 3.81597 27.6975 3.80518 27.664H4.65772C4.81312 27.664 4.96215 27.6023 5.07204 27.4924C5.18192 27.3825 5.24365 27.2335 5.24365 27.0781V23.9531C5.24365 23.7977 5.18192 23.6487 5.07204 23.5388C4.96215 23.4289 4.81312 23.3672 4.65772 23.3672H3.79346C3.81313 23.3209 3.82691 23.2723 3.83447 23.2226C4.38519 19.1532 6.39098 15.4209 9.48085 12.716C12.5707 10.0111 16.5356 8.51676 20.6421 8.50925C24.7486 8.50175 28.719 9.98164 31.8187 12.6752C34.9184 15.3687 36.9378 19.0937 37.5034 23.1611C37.5132 23.2336 37.5367 23.3035 37.5728 23.3672H36.689C36.5336 23.3672 36.3845 23.4289 36.2747 23.5388C36.1648 23.6487 36.103 23.7977 36.103 23.9531V27.0781C36.103 27.2335 36.1648 27.3825 36.2747 27.4924C36.3845 27.6023 36.5336 27.664 36.689 27.664H37.5474C37.528 27.7103 37.5146 27.7589 37.5073 27.8086C37.0693 31.02 35.722 34.0392 33.6243 36.51C31.5265 38.9807 28.7659 40.8 25.6681 41.7532C22.5702 42.7063 19.2644 42.7536 16.1405 41.8894C13.0167 41.0253 10.2051 39.2857 8.0376 36.8759C7.98775 36.8138 7.92576 36.7625 7.85541 36.7251C7.78506 36.6878 7.70783 36.6652 7.62844 36.6587C7.54906 36.6522 7.46917 36.6619 7.39368 36.6873C7.31819 36.7127 7.24867 36.7533 7.18937 36.8064C7.13007 36.8596 7.08224 36.9243 7.04879 36.9966C7.01535 37.0689 6.997 37.1473 6.99486 37.2269C6.99272 37.3065 7.00684 37.3857 7.03635 37.4597C7.06586 37.5337 7.11015 37.6009 7.1665 37.6572C9.48365 40.2331 12.4892 42.0926 15.8286 43.0163C19.168 43.9399 22.7019 43.8892 26.0134 42.8701C29.3249 41.8511 32.2758 39.9061 34.5181 37.2648C36.7604 34.6234 38.2005 31.3959 38.6685 27.9629C38.6822 27.8606 38.6688 27.7565 38.6294 27.6611H39.8101C39.9655 27.6611 40.1145 27.5994 40.2244 27.4895C40.3343 27.3796 40.396 27.2306 40.396 27.0752V23.9531C40.396 23.7984 40.3348 23.6499 40.2258 23.5402C40.1167 23.4304 39.9687 23.3682 39.814 23.3672ZM4.07178 26.4922H2.11865V24.539H4.07178V26.4922ZM39.228 26.4922H37.2749V24.539H39.228V26.4922Z" fill="#122C82"></path><path d="M39.814 23.3672L39.834 20.3672L39.824 20.3672H39.814V23.3672ZM38.5933 23.3672L35.9901 21.876L33.4175 26.3672H38.5933V23.3672ZM38.6636 23L35.6922 23.4136L35.6937 23.4239L38.6636 23ZM2.67334 23.0654L-0.2995 22.6626L-0.299796 22.6648L2.67334 23.0654ZM2.7124 23.3672V26.3672H7.19588L5.48554 22.2227L2.7124 23.3672ZM0.946777 23.9531H-2.05322H0.946777ZM2.69092 27.664L5.53721 28.612L6.85206 24.664H2.69092V27.664ZM2.66748 27.9209L5.64101 27.5232L5.63971 27.5135L5.63834 27.5038L2.66748 27.9209ZM5.84619 36.0049L3.3982 37.739L3.39876 37.7398L5.84619 36.0049ZM6.80225 35.3271L4.35407 37.061L4.35481 37.0621L6.80225 35.3271ZM3.82861 27.7666L6.80206 27.3681L6.80049 27.3568L3.82861 27.7666ZM3.80518 27.664V24.664H-0.316301L0.950372 28.586L3.80518 27.664ZM5.24365 23.9531H8.24365H5.24365ZM3.79346 23.3672L1.03276 22.193L-0.742489 26.3672H3.79346V23.3672ZM3.83447 23.2226L6.80038 23.6736L6.80408 23.6493L6.80737 23.625L3.83447 23.2226ZM37.5034 23.1611L40.4768 22.7619L40.4748 22.7479L37.5034 23.1611ZM37.5728 23.3672V26.3672H42.7219L40.1826 21.8877L37.5728 23.3672ZM37.5474 27.664L40.3151 28.8214L42.0535 24.664H37.5474V27.664ZM37.5073 27.8086L34.5386 27.3767L34.5367 27.3899L34.5348 27.4032L37.5073 27.8086ZM8.0376 36.8759L5.69769 38.7534L5.7506 38.8193L5.80715 38.8822L8.0376 36.8759ZM7.1665 37.6572L9.3969 35.6509L9.3433 35.5913L9.28659 35.5346L7.1665 37.6572ZM38.6685 27.9629L41.641 28.3681L41.6416 28.3634L38.6685 27.9629ZM38.6294 27.6611V24.6611H34.1459L35.8563 28.8055L38.6294 27.6611ZM40.396 23.9531L37.396 23.953V23.9531H40.396ZM4.07178 26.4922V29.4922H7.07178V26.4922H4.07178ZM2.11865 26.4922H-0.881347V29.4922H2.11865V26.4922ZM2.11865 24.539V21.539H-0.881347V24.539H2.11865ZM4.07178 24.539H7.07178V21.539H4.07178V24.539ZM39.228 26.4922V29.4922H42.228V26.4922H39.228ZM37.2749 26.4922H34.2749V29.4922H37.2749V26.4922ZM37.2749 24.539V21.539H34.2749V24.539H37.2749ZM39.228 24.539H42.228V21.539H39.228V24.539ZM39.814 20.3672H38.5933V26.3672H39.814V20.3672ZM41.1964 24.8583C41.5922 24.1674 41.746 23.3642 41.6335 22.576L35.6937 23.4239C35.6174 22.8894 35.7217 22.3446 35.9901 21.876L41.1964 24.8583ZM41.6349 22.5864C40.9299 17.521 38.4145 12.8822 34.5539 9.52794L30.6187 14.0572C33.3848 16.4605 35.1871 19.7842 35.6922 23.4136L41.6349 22.5864ZM34.5539 9.52794C30.6933 6.17366 25.7487 4.33076 20.6345 4.34006L20.6454 10.3401C24.3097 10.3334 27.8525 11.6538 30.6187 14.0572L34.5539 9.52794ZM20.6345 4.34006C15.5203 4.34936 10.5824 6.21022 6.73402 9.57852L10.6857 14.0934C13.4431 11.68 16.981 10.3467 20.6454 10.3401L20.6345 4.34006ZM6.73402 9.57852C2.88566 12.9468 0.387133 17.5947 -0.299499 22.6626L5.64618 23.4682C6.13815 19.837 7.92834 16.5068 10.6857 14.0934L6.73402 9.57852ZM-0.299796 22.6648C-0.384125 23.2907 -0.301654 23.9278 -0.0607338 24.5116L5.48554 22.2227C5.64773 22.6157 5.70325 23.0446 5.64648 23.466L-0.299796 22.6648ZM2.7124 20.3672H1.53271V26.3672H2.7124V20.3672ZM1.53271 20.3672C0.581672 20.3672 -0.330428 20.745 -1.00293 21.4175L3.23971 25.6601C2.78699 26.1128 2.17296 26.3672 1.53271 26.3672V20.3672ZM-1.00293 21.4175C-1.67542 22.09 -2.05322 23.0021 -2.05322 23.9531H3.94678C3.94678 24.5933 3.69244 25.2074 3.23971 25.6601L-1.00293 21.4175ZM-2.05322 23.9531V27.0781H3.94678V23.9531H-2.05322ZM-2.05322 27.0781C-2.05322 28.0291 -1.67542 28.9412 -1.00293 29.6137L3.23971 25.3711C3.69244 25.8238 3.94678 26.4379 3.94678 27.0781H-2.05322ZM-1.00293 29.6137C-0.330428 30.2862 0.581672 30.664 1.53271 30.664V24.664C2.17296 24.664 2.78699 24.9184 3.23971 25.3711L-1.00293 29.6137ZM1.53271 30.664H2.69092V24.664H1.53271V30.664ZM-0.155377 26.7161C-0.329216 27.2381 -0.379871 27.7932 -0.303381 28.338L5.63834 27.5038C5.69061 27.876 5.656 28.2553 5.53721 28.612L-0.155377 26.7161ZM-0.30605 28.3185C0.147784 31.7123 1.41895 34.9451 3.3982 37.739L8.29419 34.2707C6.87655 32.2695 5.96607 29.954 5.64101 27.5232L-0.30605 28.3185ZM3.39876 37.7398C3.94877 38.5157 4.78447 39.0413 5.72202 39.201L6.72962 33.2862C7.36077 33.3937 7.92336 33.7476 8.29363 34.2699L3.39876 37.7398ZM5.72202 39.201C6.65958 39.3607 7.62217 39.1415 8.39804 38.5914L4.92813 33.6966C5.45044 33.3263 6.09845 33.1787 6.72962 33.2862L5.72202 39.201ZM8.39804 38.5914C9.17391 38.0414 9.69953 37.2057 9.85925 36.2682L3.94446 35.2606C4.05198 34.6294 4.40582 34.0668 4.92813 33.6966L8.39804 38.5914ZM9.85925 36.2682C10.019 35.3306 9.79969 34.368 9.24968 33.5922L4.35481 37.0621C3.98455 36.5398 3.83694 35.8917 3.94446 35.2606L9.85925 36.2682ZM9.25043 33.5932C7.94272 31.7468 7.10255 29.6107 6.80203 27.3681L0.855194 28.165C1.28465 31.3697 2.48529 34.4224 4.35407 37.061L9.25043 33.5932ZM6.80049 27.3568C6.77172 27.1481 6.7247 26.9424 6.65998 26.742L0.950372 28.586C0.907241 28.4525 0.875908 28.3154 0.856736 28.1764L6.80049 27.3568ZM3.80518 30.664H4.65772V24.664H3.80518V30.664ZM4.65772 30.664C5.60876 30.664 6.52086 30.2862 7.19336 29.6137L2.95072 25.3711C3.40345 24.9184 4.01747 24.664 4.65772 24.664V30.664ZM7.19336 29.6137C7.86586 28.9412 8.24365 28.0291 8.24365 27.0781H2.24365C2.24365 26.4379 2.49799 25.8238 2.95072 25.3711L7.19336 29.6137ZM8.24365 27.0781V23.9531H2.24365V27.0781H8.24365ZM8.24365 23.9531C8.24365 23.0021 7.86586 22.09 7.19336 21.4175L2.95072 25.6601C2.49799 25.2074 2.24365 24.5933 2.24365 23.9531H8.24365ZM7.19336 21.4175C6.52086 20.745 5.60876 20.3672 4.65772 20.3672V26.3672C4.01747 26.3672 3.40345 26.1128 2.95072 25.6601L7.19336 21.4175ZM4.65772 20.3672H3.79346V26.3672H4.65772V20.3672ZM6.55415 24.5413C6.67229 24.2635 6.75501 23.972 6.80038 23.6736L0.868566 22.7716C0.898821 22.5727 0.953982 22.3783 1.03276 22.193L6.55415 24.5413ZM6.80737 23.625C7.26086 20.274 8.91253 17.2006 11.4569 14.9733L7.50483 10.4587C3.86944 13.6411 1.50952 18.0324 0.861573 22.8203L6.80737 23.625ZM11.4569 14.9733C14.0012 12.746 17.2661 11.5154 20.6476 11.5092L20.6366 5.50926C15.8051 5.51809 11.1402 7.27631 7.50483 10.4587L11.4569 14.9733ZM20.6476 11.5092C24.0291 11.5031 27.2985 12.7217 29.8509 14.9397L33.7864 10.4107C30.1395 7.24159 25.4682 5.50043 20.6366 5.50926L20.6476 11.5092ZM29.8509 14.9397C32.4034 17.1577 34.0663 20.225 34.532 23.5743L40.4748 22.7479C39.8094 17.9624 37.4334 13.5798 33.7864 10.4107L29.8509 14.9397ZM34.5301 23.5603C34.5909 24.0129 34.7378 24.4495 34.9629 24.8466L40.1826 21.8877C40.3356 22.1576 40.4354 22.4543 40.4767 22.7619L34.5301 23.5603ZM37.5728 20.3672H36.689V26.3672H37.5728V20.3672ZM36.689 20.3672C35.7379 20.3672 34.8258 20.745 34.1533 21.4175L38.396 25.6601C37.9432 26.1128 37.3292 26.3672 36.689 26.3672V20.3672ZM34.1533 21.4175C33.4808 22.09 33.103 23.0021 33.103 23.9531H39.103C39.103 24.5933 38.8487 25.2074 38.396 25.6601L34.1533 21.4175ZM33.103 23.9531V27.0781H39.103V23.9531H33.103ZM33.103 27.0781C33.103 28.0291 33.4808 28.9412 34.1533 29.6137L38.396 25.3711C38.8487 25.8238 39.103 26.4379 39.103 27.0781H33.103ZM34.1533 29.6137C34.8258 30.2862 35.7379 30.664 36.689 30.664V24.664C37.3292 24.664 37.9432 24.9184 38.396 25.3711L34.1533 29.6137ZM36.689 30.664H37.5474V24.664H36.689V30.664ZM34.7796 26.5067C34.663 26.7854 34.5821 27.0777 34.5386 27.3767L40.4761 28.2404C40.447 28.4401 40.393 28.6352 40.3151 28.8214L34.7796 26.5067ZM34.5348 27.4032C34.1742 30.0476 33.0647 32.5338 31.3373 34.5683L35.9112 38.4516C38.3793 35.5446 39.9645 31.9924 40.4798 28.214L34.5348 27.4032ZM31.3373 34.5683C29.61 36.6029 27.3367 38.1009 24.7858 38.8858L26.5503 44.6205C30.1951 43.4991 33.4431 41.3586 35.9112 38.4516L31.3373 34.5683ZM24.7858 38.8858C22.2349 39.6707 19.5127 39.7096 16.9404 38.998L15.3407 44.7808C19.016 45.7976 22.9055 45.7419 26.5503 44.6205L24.7858 38.8858ZM16.9404 38.998C14.3681 38.2864 12.0529 36.854 10.268 34.8697L5.80715 38.8822C8.35738 41.7174 11.6653 43.7641 15.3407 44.7808L16.9404 38.998ZM10.3775 34.9985C10.0724 34.6183 9.69304 34.3042 9.26251 34.0756L6.44831 39.3747C6.15848 39.2208 5.90307 39.0094 5.69769 38.7534L10.3775 34.9985ZM9.26251 34.0756C8.83193 33.8469 8.35929 33.7085 7.87348 33.6687L7.3834 39.6486C7.05637 39.6218 6.73819 39.5286 6.44831 39.3747L9.26251 34.0756ZM7.87348 33.6687C7.38768 33.6289 6.8988 33.6885 6.43674 33.844L8.35062 39.5306C8.03955 39.6353 7.71044 39.6754 7.3834 39.6486L7.87348 33.6687ZM6.43674 33.844C5.97469 33.9995 5.54924 34.2476 5.18635 34.5731L9.19239 39.0398C8.9481 39.2589 8.66168 39.4259 8.35062 39.5306L6.43674 33.844ZM5.18635 34.5731C4.82346 34.8985 4.53072 35.2946 4.32603 35.737L9.77156 38.2562C9.63376 38.5541 9.43668 38.8207 9.19239 39.0398L5.18635 34.5731ZM4.32603 35.737C4.12135 36.1795 4.00904 36.659 3.99594 37.1463L9.99378 37.3075C9.98496 37.6355 9.90935 37.9584 9.77156 38.2562L4.32603 35.737ZM3.99594 37.1463C3.98284 37.6336 4.06925 38.1185 4.24986 38.5713L9.82284 36.3482C9.94442 36.653 10.0026 36.9794 9.99378 37.3075L3.99594 37.1463ZM4.24986 38.5713C4.43047 39.024 4.70151 39.4352 5.04642 39.7798L9.28659 35.5346C9.51879 35.7666 9.70125 36.0434 9.82284 36.3482L4.24986 38.5713ZM4.93611 39.6635C7.63596 42.6649 11.1379 44.8315 15.0288 45.9077L16.6283 40.1248C13.8405 39.3537 11.3313 37.8014 9.3969 35.6509L4.93611 39.6635ZM15.0288 45.9077C18.9197 46.9839 23.0373 46.9248 26.8957 45.7374L25.131 40.0028C22.3664 40.8536 19.4162 40.8959 16.6283 40.1248L15.0288 45.9077ZM26.8957 45.7374C30.7542 44.55 34.1925 42.2839 36.8052 39.2063L32.2311 35.3233C30.3591 37.5284 27.8956 39.1521 25.131 40.0028L26.8957 45.7374ZM36.8052 39.2063C39.4178 36.1287 41.0957 32.3681 41.641 28.3681L35.696 27.5577C35.3053 30.4237 34.103 33.1182 32.2311 35.3233L36.8052 39.2063ZM41.6416 28.3634C41.7259 27.7375 41.6434 27.1004 41.4025 26.5167L35.8563 28.8055C35.6941 28.4126 35.6386 27.9837 35.6953 27.5623L41.6416 28.3634ZM38.6294 30.6611H39.8101V24.6611H38.6294V30.6611ZM39.8101 30.6611C40.7611 30.6611 41.6732 30.2833 42.3457 29.6108L38.1031 25.3682C38.5558 24.9154 39.1698 24.6611 39.8101 24.6611V30.6611ZM42.3457 29.6108C43.0182 28.9383 43.396 28.0262 43.396 27.0752H37.396C37.396 26.4349 37.6504 25.8209 38.1031 25.3682L42.3457 29.6108ZM43.396 27.0752V23.9531H37.396V27.0752H43.396ZM43.396 23.9532C43.396 23.0062 43.0215 22.0977 42.3542 21.4259L38.0974 25.6544C37.6481 25.2021 37.396 24.5905 37.396 23.953L43.396 23.9532ZM42.3542 21.4259C41.6868 20.7541 40.7809 20.3735 39.834 20.3672L39.794 26.3671C39.1565 26.3628 38.5466 26.1066 38.0974 25.6544L42.3542 21.4259ZM4.07178 23.4922H2.11865V29.4922H4.07178V23.4922ZM5.11865 26.4922V24.539H-0.881347V26.4922H5.11865ZM2.11865 27.539H4.07178V21.539H2.11865V27.539ZM1.07178 24.539V26.4922H7.07178V24.539H1.07178ZM39.228 23.4922H37.2749V29.4922H39.228V23.4922ZM40.2749 26.4922V24.539H34.2749V26.4922H40.2749ZM37.2749 27.539H39.228V21.539H37.2749V27.539ZM36.228 24.539V26.4922H42.228V24.539H36.228Z" fill="#122C82" mask="url(#path-3-inside-2_174_1120)"></path><mask id="path-5-inside-3_174_1120" fill="#ffffff"><path d="M2.81887 5.78907C3.36716 5.78901 3.90071 5.61148 4.33972 5.28301C4.77874 4.95454 5.09963 4.49279 5.25442 3.9668H18.2486V5.20313C18.2486 5.35853 18.3103 5.50756 18.4202 5.61745C18.5301 5.72733 18.6791 5.78907 18.8345 5.78907H22.7407C22.8961 5.78907 23.0452 5.72733 23.1551 5.61745C23.2649 5.50756 23.3267 5.35853 23.3267 5.20313V3.9668H36.0913C36.2667 4.56384 36.6551 5.0757 37.183 5.40521C37.7108 5.73471 38.3413 5.85891 38.9547 5.75422C39.5681 5.64953 40.1216 5.32324 40.5103 4.8373C40.899 4.35137 41.0957 3.73963 41.0631 3.11823C41.0304 2.49683 40.7708 1.90905 40.3333 1.46649C39.8959 1.02392 39.3112 0.757392 38.6903 0.717504C38.0693 0.677617 37.4553 0.867149 36.9648 1.25011C36.4744 1.63308 36.1417 2.18281 36.0298 2.79492H23.3267V1.29688C23.3267 1.14147 23.2649 0.992439 23.1551 0.882555C23.0452 0.77267 22.8961 0.710938 22.7407 0.710938H18.8345C18.6791 0.710938 18.5301 0.77267 18.4202 0.882555C18.3103 0.992439 18.2486 1.14147 18.2486 1.29688V2.79492H5.32082C5.23434 2.3202 5.01436 1.87994 4.68667 1.52573C4.35898 1.17153 3.93714 0.918029 3.47056 0.794939C3.00398 0.671848 2.51199 0.68426 2.05222 0.830722C1.59244 0.977184 1.18392 1.25163 0.874505 1.62191C0.565091 1.99219 0.367599 2.44298 0.30516 2.92146C0.242722 3.39995 0.317924 3.88632 0.521957 4.3236C0.72599 4.76088 1.05041 5.13097 1.4572 5.39051C1.864 5.65006 2.33633 5.7883 2.81887 5.78907ZM38.5239 1.88281C38.7943 1.88281 39.0587 1.963 39.2835 2.11323C39.5083 2.26345 39.6836 2.47698 39.7871 2.7268C39.8905 2.97662 39.9176 3.25152 39.8648 3.51673C39.8121 3.78194 39.6819 4.02555 39.4907 4.21675C39.2995 4.40795 39.0559 4.53817 38.7907 4.59092C38.5255 4.64367 38.2506 4.6166 38.0007 4.51312C37.7509 4.40964 37.5374 4.2344 37.3872 4.00957C37.2369 3.78474 37.1567 3.52041 37.1567 3.25C37.1567 2.8874 37.3008 2.53965 37.5572 2.28325C37.8136 2.02686 38.1613 1.88281 38.5239 1.88281ZM19.4204 1.88281H22.1548V4.61719H19.4204V1.88281ZM2.81887 1.88281C3.08927 1.88281 3.35361 1.963 3.57844 2.11323C3.80327 2.26345 3.97851 2.47698 4.08199 2.7268C4.18547 2.97662 4.21254 3.25152 4.15979 3.51673C4.10703 3.78194 3.97682 4.02555 3.78562 4.21675C3.59441 4.40795 3.3508 4.53817 3.0856 4.59092C2.82039 4.64367 2.54549 4.6166 2.29567 4.51312C2.04585 4.40964 1.83232 4.2344 1.6821 4.00957C1.53187 3.78474 1.45168 3.52041 1.45168 3.25C1.45168 2.8874 1.59573 2.53965 1.85212 2.28325C2.10852 2.02686 2.45627 1.88281 2.81887 1.88281Z"></path></mask><path d="M2.81887 5.78907C3.36716 5.78901 3.90071 5.61148 4.33972 5.28301C4.77874 4.95454 5.09963 4.49279 5.25442 3.9668H18.2486V5.20313C18.2486 5.35853 18.3103 5.50756 18.4202 5.61745C18.5301 5.72733 18.6791 5.78907 18.8345 5.78907H22.7407C22.8961 5.78907 23.0452 5.72733 23.1551 5.61745C23.2649 5.50756 23.3267 5.35853 23.3267 5.20313V3.9668H36.0913C36.2667 4.56384 36.6551 5.0757 37.183 5.40521C37.7108 5.73471 38.3413 5.85891 38.9547 5.75422C39.5681 5.64953 40.1216 5.32324 40.5103 4.8373C40.899 4.35137 41.0957 3.73963 41.0631 3.11823C41.0304 2.49683 40.7708 1.90905 40.3333 1.46649C39.8959 1.02392 39.3112 0.757392 38.6903 0.717504C38.0693 0.677617 37.4553 0.867149 36.9648 1.25011C36.4744 1.63308 36.1417 2.18281 36.0298 2.79492H23.3267V1.29688C23.3267 1.14147 23.2649 0.992439 23.1551 0.882555C23.0452 0.77267 22.8961 0.710938 22.7407 0.710938H18.8345C18.6791 0.710938 18.5301 0.77267 18.4202 0.882555C18.3103 0.992439 18.2486 1.14147 18.2486 1.29688V2.79492H5.32082C5.23434 2.3202 5.01436 1.87994 4.68667 1.52573C4.35898 1.17153 3.93714 0.918029 3.47056 0.794939C3.00398 0.671848 2.51199 0.68426 2.05222 0.830722C1.59244 0.977184 1.18392 1.25163 0.874505 1.62191C0.565091 1.99219 0.367599 2.44298 0.30516 2.92146C0.242722 3.39995 0.317924 3.88632 0.521957 4.3236C0.72599 4.76088 1.05041 5.13097 1.4572 5.39051C1.864 5.65006 2.33633 5.7883 2.81887 5.78907ZM38.5239 1.88281C38.7943 1.88281 39.0587 1.963 39.2835 2.11323C39.5083 2.26345 39.6836 2.47698 39.7871 2.7268C39.8905 2.97662 39.9176 3.25152 39.8648 3.51673C39.8121 3.78194 39.6819 4.02555 39.4907 4.21675C39.2995 4.40795 39.0559 4.53817 38.7907 4.59092C38.5255 4.64367 38.2506 4.6166 38.0007 4.51312C37.7509 4.40964 37.5374 4.2344 37.3872 4.00957C37.2369 3.78474 37.1567 3.52041 37.1567 3.25C37.1567 2.8874 37.3008 2.53965 37.5572 2.28325C37.8136 2.02686 38.1613 1.88281 38.5239 1.88281ZM19.4204 1.88281H22.1548V4.61719H19.4204V1.88281ZM2.81887 1.88281C3.08927 1.88281 3.35361 1.963 3.57844 2.11323C3.80327 2.26345 3.97851 2.47698 4.08199 2.7268C4.18547 2.97662 4.21254 3.25152 4.15979 3.51673C4.10703 3.78194 3.97682 4.02555 3.78562 4.21675C3.59441 4.40795 3.3508 4.53817 3.0856 4.59092C2.82039 4.64367 2.54549 4.6166 2.29567 4.51312C2.04585 4.40964 1.83232 4.2344 1.6821 4.00957C1.53187 3.78474 1.45168 3.52041 1.45168 3.25C1.45168 2.8874 1.59573 2.53965 1.85212 2.28325C2.10852 2.02686 2.45627 1.88281 2.81887 1.88281Z" fill="#122C82"></path><path d="M2.81887 5.78907L2.81414 8.78907L2.81915 8.78907L2.81887 5.78907ZM5.25442 3.9668V0.966799H3.01005L2.37644 3.11988L5.25442 3.9668ZM18.2486 3.9668H21.2486V0.966799H18.2486V3.9668ZM23.3267 3.9668V0.966799H20.3267V3.9668H23.3267ZM36.0913 3.9668L38.9698 3.12147L38.337 0.966799H36.0913V3.9668ZM36.0298 2.79492V5.79492H38.5313L38.9809 3.3342L36.0298 2.79492ZM23.3267 2.79492H20.3267V5.79492H23.3267V2.79492ZM22.7407 0.710938V-2.28906V0.710938ZM18.8345 0.710938V-2.28906V0.710938ZM18.2486 2.79492V5.79492H21.2486V2.79492H18.2486ZM5.32082 2.79492L2.3694 3.33262L2.81799 5.79492H5.32082V2.79492ZM19.4204 1.88281V-1.11719H16.4204V1.88281H19.4204ZM22.1548 1.88281H25.1548V-1.11719H22.1548V1.88281ZM22.1548 4.61719V7.61719H25.1548V4.61719H22.1548ZM19.4204 4.61719H16.4204V7.61719H19.4204V4.61719ZM2.81915 8.78907C4.01527 8.78895 5.17922 8.40166 6.13695 7.68509L2.5425 2.88093C2.62219 2.8213 2.71905 2.78907 2.81859 2.78907L2.81915 8.78907ZM6.13695 7.68509C7.09468 6.96852 7.79471 5.96119 8.13239 4.81372L2.37644 3.11988C2.40454 3.02439 2.4628 2.94056 2.5425 2.88093L6.13695 7.68509ZM5.25442 6.9668H18.2486V0.966799H5.25442V6.9668ZM15.2486 3.9668V5.20313H21.2486V3.9668H15.2486ZM15.2486 5.20313C15.2486 6.15417 15.6264 7.06627 16.2988 7.73877L20.5415 3.49613C20.9942 3.94886 21.2486 4.56288 21.2486 5.20313H15.2486ZM16.2988 7.73877C16.9713 8.41126 17.8834 8.78907 18.8345 8.78907V2.78907C19.4747 2.78907 20.0888 3.04341 20.5415 3.49613L16.2988 7.73877ZM18.8345 8.78907H22.7407V2.78907H18.8345V8.78907ZM22.7407 8.78907C23.6918 8.78907 24.6039 8.41126 25.2764 7.73877L21.0337 3.49613C21.4865 3.04341 22.1005 2.78907 22.7407 2.78907V8.78907ZM25.2764 7.73877C25.9489 7.06627 26.3267 6.15417 26.3267 5.20313H20.3267C20.3267 4.56288 20.581 3.94886 21.0337 3.49613L25.2764 7.73877ZM26.3267 5.20313V3.9668H20.3267V5.20313H26.3267ZM23.3267 6.9668H36.0913V0.966799H23.3267V6.9668ZM33.2129 4.81213C33.5954 6.1146 34.4429 7.23125 35.5944 7.95007L38.7716 2.86034C38.8674 2.92016 38.9379 3.01308 38.9698 3.12147L33.2129 4.81213ZM35.5944 7.95007C36.7459 8.6689 38.1213 8.93984 39.4594 8.71145L38.4499 2.79698C38.5613 2.77798 38.6758 2.80052 38.7716 2.86034L35.5944 7.95007ZM39.4594 8.71145C40.7975 8.48306 42.0052 7.77125 42.8531 6.71117L38.1675 2.96344C38.2381 2.87522 38.3386 2.81599 38.4499 2.79698L39.4594 8.71145ZM42.8531 6.71117C43.701 5.65108 44.1301 4.31654 44.0589 2.96095L38.0672 3.27551C38.0613 3.16271 38.097 3.05166 38.1675 2.96344L42.8531 6.71117ZM44.0589 2.96095C43.9878 1.60534 43.4213 0.323075 42.467 -0.642395L38.1997 3.57537C38.1203 3.49502 38.0731 3.38832 38.0672 3.27551L44.0589 2.96095ZM42.467 -0.642395C41.5128 -1.60786 40.2372 -2.18931 38.8826 -2.27633L38.4979 3.71133C38.3852 3.70409 38.2791 3.6557 38.1997 3.57537L42.467 -0.642395ZM38.8826 -2.27633C37.5279 -2.36334 36.1884 -1.94987 35.1185 -1.11442L38.8112 3.61465C38.7221 3.68417 38.6107 3.71858 38.4979 3.71133L38.8826 -2.27633ZM35.1185 -1.11442C34.0486 -0.278968 33.3227 0.920288 33.0787 2.25564L38.9809 3.3342C38.9606 3.44533 38.9002 3.54512 38.8112 3.61465L35.1185 -1.11442ZM36.0298 -0.205077H23.3267V5.79492H36.0298V-0.205077ZM26.3267 2.79492V1.29688H20.3267V2.79492H26.3267ZM26.3267 1.29688C26.3267 0.345833 25.9489 -0.566266 25.2764 -1.23876L21.0337 3.00387C20.581 2.55114 20.3267 1.93712 20.3267 1.29688H26.3267ZM25.2764 -1.23876C24.6039 -1.91126 23.6918 -2.28906 22.7407 -2.28906V3.71094C22.1005 3.71094 21.4865 3.4566 21.0337 3.00387L25.2764 -1.23876ZM22.7407 -2.28906H18.8345V3.71094H22.7407V-2.28906ZM18.8345 -2.28906C17.8834 -2.28906 16.9713 -1.91126 16.2988 -1.23876L20.5415 3.00387C20.0888 3.4566 19.4747 3.71094 18.8345 3.71094V-2.28906ZM16.2988 -1.23876C15.6264 -0.566266 15.2486 0.345833 15.2486 1.29688H21.2486C21.2486 1.93712 20.9942 2.55114 20.5415 3.00387L16.2988 -1.23876ZM15.2486 1.29688V2.79492H21.2486V1.29688H15.2486ZM18.2486 -0.205077H5.32082V5.79492H18.2486V-0.205077ZM8.27224 2.25723C8.08357 1.22159 7.60369 0.261164 6.88882 -0.511555L2.48452 3.56302C2.42504 3.49872 2.3851 3.4188 2.3694 3.33262L8.27224 2.25723ZM6.88882 -0.511555C6.17395 -1.28427 5.25368 -1.83729 4.23583 -2.10581L2.7053 3.69569C2.62059 3.67335 2.54401 3.62733 2.48452 3.56302L6.88882 -0.511555ZM4.23583 -2.10581C3.21797 -2.37434 2.14467 -2.34726 1.14165 -2.02775L2.96278 3.6892C2.87931 3.71578 2.79 3.71804 2.7053 3.69569L4.23583 -2.10581ZM1.14165 -2.02775C0.138631 -1.70824 -0.752575 -1.10953 -1.42757 -0.301741L3.17658 3.54556C3.12041 3.61278 3.04625 3.66261 2.96278 3.6892L1.14165 -2.02775ZM-1.42757 -0.301741C-2.10257 0.506044 -2.53341 1.48945 -2.66962 2.53328L3.27994 3.30965C3.26861 3.39651 3.23275 3.47834 3.17658 3.54556L-1.42757 -0.301741ZM-2.66962 2.53328C-2.80583 3.57711 -2.64177 4.63814 -2.19667 5.59209L3.24058 3.05511C3.27762 3.13449 3.29127 3.22278 3.27994 3.30965L-2.66962 2.53328ZM-2.19667 5.59209C-1.75156 6.54604 -1.04384 7.3534 -0.156396 7.9196L3.0708 2.86142C3.14465 2.90854 3.20354 2.97572 3.24058 3.05511L-2.19667 5.59209ZM-0.156396 7.9196C0.731045 8.4858 1.76146 8.7874 2.81414 8.78906L2.8236 2.78907C2.91121 2.78921 2.99695 2.81431 3.0708 2.86142L-0.156396 7.9196ZM38.5239 4.88281C38.201 4.88281 37.8853 4.78705 37.6168 4.60763L40.9502 -0.381182C40.232 -0.861056 39.3877 -1.11719 38.5239 -1.11719V4.88281ZM37.6168 4.60763C37.3483 4.42822 37.139 4.17321 37.0154 3.87485L42.5587 1.57875C42.2281 0.780748 41.6684 0.0986878 40.9502 -0.381182L37.6168 4.60763ZM37.0154 3.87485C36.8918 3.57648 36.8595 3.24818 36.9225 2.93146L42.8072 4.102C42.9757 3.25486 42.8892 2.37676 42.5587 1.57875L37.0154 3.87485ZM36.9225 2.93146C36.9855 2.61474 37.141 2.32379 37.3694 2.09543L41.612 6.33807C42.2228 5.7273 42.6387 4.94913 42.8072 4.102L36.9225 2.93146ZM37.3694 2.09543C37.5977 1.86707 37.8887 1.71157 38.2054 1.64856L39.3759 7.53328C40.2231 7.36477 41.0012 6.94884 41.612 6.33807L37.3694 2.09543ZM38.2054 1.64856C38.5221 1.58556 38.8504 1.6179 39.1488 1.74148L36.8527 7.28476C37.6507 7.6153 38.5288 7.70179 39.3759 7.53328L38.2054 1.64856ZM39.1488 1.74148C39.4471 1.86507 39.7022 2.07435 39.8816 2.34286L34.8927 5.67628C35.3726 6.39446 36.0547 6.95421 36.8527 7.28476L39.1488 1.74148ZM39.8816 2.34286C40.061 2.61137 40.1567 2.92706 40.1567 3.25H34.1567C34.1567 4.11376 34.4129 4.95811 34.8927 5.67628L39.8816 2.34286ZM40.1567 3.25C40.1567 3.68304 39.9847 4.09836 39.6785 4.40457L35.4359 0.161934C34.6169 0.980945 34.1567 2.09176 34.1567 3.25H40.1567ZM39.6785 4.40457C39.3723 4.71079 38.957 4.88281 38.5239 4.88281V-1.11719C37.3657 -1.11719 36.2549 -0.657074 35.4359 0.161934L39.6785 4.40457ZM19.4204 4.88281H22.1548V-1.11719H19.4204V4.88281ZM19.1548 1.88281V4.61719H25.1548V1.88281H19.1548ZM22.1548 1.61719H19.4204V7.61719H22.1548V1.61719ZM22.4204 4.61719V1.88281H16.4204V4.61719H22.4204ZM2.81887 4.88281C2.49593 4.88281 2.18024 4.78705 1.91173 4.60763L5.24515 -0.381182C4.52697 -0.861056 3.68262 -1.11719 2.81887 -1.11719V4.88281ZM1.91173 4.60763C1.64321 4.42822 1.43393 4.17321 1.31035 3.87485L6.85363 1.57875C6.52308 0.780752 5.96333 0.0986903 5.24515 -0.381182L1.91173 4.60763ZM1.31035 3.87485C1.18676 3.57649 1.15443 3.24819 1.21743 2.93146L7.10214 4.102C7.27065 3.25485 7.18417 2.37675 6.85363 1.57875L1.31035 3.87485ZM1.21743 2.93146C1.28043 2.61473 1.43594 2.32379 1.6643 2.09543L5.90694 6.33807C6.5177 5.7273 6.93364 4.94914 7.10214 4.102L1.21743 2.93146ZM1.6643 2.09543C1.89265 1.86708 2.18359 1.71157 2.50032 1.64856L3.67087 7.53328C4.51802 7.36477 5.29618 6.94883 5.90694 6.33807L1.6643 2.09543ZM2.50032 1.64856C2.81706 1.58556 3.14537 1.6179 3.44372 1.74148L1.14762 7.28476C1.94562 7.6153 2.82371 7.70179 3.67087 7.53328L2.50032 1.64856ZM3.44372 1.74148C3.74208 1.86506 3.99709 2.07435 4.17651 2.34286L-0.812313 5.67628C-0.33244 6.39446 0.349622 6.95422 1.14762 7.28476L3.44372 1.74148ZM4.17651 2.34286C4.35592 2.61138 4.45168 2.92706 4.45168 3.25H-1.54832C-1.54832 4.11375 -1.29219 4.9581 -0.812313 5.67628L4.17651 2.34286ZM4.45168 3.25C4.45168 3.68305 4.27966 4.09836 3.97344 4.40457L-0.269198 0.161934C-1.0882 0.98094 -1.54832 2.09175 -1.54832 3.25H4.45168ZM3.97344 4.40457C3.66723 4.71078 3.25192 4.88281 2.81887 4.88281V-1.11719C1.66062 -1.11719 0.549807 -0.657072 -0.269198 0.161934L3.97344 4.40457Z" fill="#122C82" mask="url(#path-5-inside-3_174_1120)"></path></svg>